<?xml version="1.0" standalone="no"?>
  <!DOCTYPE svg PUBLIC "-//W3C//DTD SVG 1.1//EN" "http://www.w3.org/Graphics/SVG/1.1/DTD/svg11.dtd" >
  <svg>
  <metadata>
  Created by font-carrier
  </metadata>
  <defs>
  <font id="fa" horiz-adv-x="1024" vert-adv-y="1024" >
    <font-face
      
      font-family="fa"
      
      font-weight="400"
      
      font-stretch="normal"
      
      units-per-em="1024"
      
      ascent="812"
      
      descent="-212"
      
    />
      <missing-glyph />

      
      <glyph glyph-name="x" unicode="&#x78;" horiz-adv-x="100"
        d="M20 20 L50 20 L50 -20 Z" />
      

      
      <glyph glyph-name="diannaoshitu" unicode="&#xE192;" d="M757.12-97.056H613.568V-32.544A35.456 35.456 0 0 1 542.528-32.544V-97.056H399.104A35.456 35.456 0 1 1 399.104-167.968H757.184A35.456 35.456 0 0 1 757.184-97.056ZM1073.216 768.032H78.72C39.68 767.968 7.872 736.224 7.872 697.056V120.608C7.872 81.44 39.616 49.696 78.784 49.696H1073.28C1112.448 49.696 1144.192 81.44 1144.192 120.608V697.056C1144.192 736.224 1112.448 768.032 1073.28 768.032ZM78.72 120.608V171.808H761.6A23.68 23.68 0 0 1 761.6 219.104H78.72V697.056H1073.28V219.104H905.6A23.68 23.68 0 1 1 905.6 171.744H1073.28V120.608H78.72Z"  horiz-adv-x="1152" vert-adv-y="1024"  />

      
      <glyph glyph-name="pingbanshitu" unicode="&#xE193;" d="M909.4258 812H132.608A52.9636 52.9636 0 0 1 79.6444 759.0364V-159.0364A52.9636 52.9636 0 0 1 132.608-212H909.4258A52.9636 52.9636 0 0 1 962.3893-159.0364V759.0364A52.9636 52.9636 0 0 1 909.4827 812ZM521.1022-176.7289A35.2711 35.2711 0 1 0 521.1022-106.0729 35.2711 35.2711 0 0 0 521.1022-176.672ZM856.5191-70.7449H185.5716V706.0729H856.4622V-70.7449Z"  horiz-adv-x="1024" vert-adv-y="1024"  />

      
      <glyph glyph-name="submittedUpSites" unicode="&#xE196;" d="M959.2865-211.99C959.1265-209.5191 958.8164-207.0382 958.8164-204.5672V420.6048 427.8875H886.3395V-139.0529H130.2789V739.6632H444.7956V812H57.4419V-204.5772C57.4419-207.0482 57.1318-209.5291 56.9717-212ZM763.1638 44.5052V688.4241L924.9038 528.1046 967.0394 574.1217 729.4713 809.359 492.7434 574.912 534.679 529.015 698.8199 691.5953V108.2688H251.3138V44.5052ZM251.2538 299.8099V236.3864H572.7431V299.8099Z"  horiz-adv-x="1024" vert-adv-y="1024"  />

      
      <glyph glyph-name="siteGroupSubmit" unicode="&#xE198;" d="M704.2407-212V-139.6053H950.935V611.4715H891.9149V-83.7662H576.5171V-11.2414H818.9199V739.5452H71.2143V364.487H0.4001V812H891.7048V684.3064H1024.3501V-212ZM0-212V-145.0471H412.8811V482.6374L251.1458 322.3726 209.1315 368.3083 446.4626 603.2887 683.4236 368.5884 641.8094 323.0429 478.1634 485.2383V-212ZM255.2973-19.1241H0.8403V44.2976H255.2973Z"  horiz-adv-x="1024" vert-adv-y="1024"  />

      
      <glyph glyph-name="rotation" unicode="&#xE19A;" d="M476.056 599.7235L499.7262 576.0533A51.0133 51.0133 0 0 0 427.5934 503.9205L317.3537 614.1603A51.0133 51.0133 0 0 0 317.3537 686.293L428.2056 797.1449A51.0133 51.0133 0 1 0 500.3384 725.0121L477.6374 702.3112C783.054 667.8262 1020.2658 408.6787 1020.2658 94.0797A51.0133 51.0133 0 0 0 918.2392 94.0797C918.2392 352.7681 725.6641 566.4628 476.056 599.7235ZM153.0399 400.1595H561.1462A153.0399 153.0399 0 0 0 714.1861 247.1196V-58.9601A153.0399 153.0399 0 0 0 561.1462-212H153.0399A153.0399 153.0399 0 0 0 0-58.9601V247.1196A153.0399 153.0399 0 0 0 153.0399 400.1595ZM153.0399 298.1329A51.0133 51.0133 0 0 1 102.0266 247.1196V-58.9601A51.0133 51.0133 0 0 1 153.0399-109.9734H561.1462A51.0133 51.0133 0 0 1 612.1595-58.9601V247.1196A51.0133 51.0133 0 0 1 561.1462 298.1329H153.0399Z"  horiz-adv-x="1024" vert-adv-y="1024"  />

      
      <glyph glyph-name="size" unicode="&#xE19C;" d="M847.74 286.91H501.48V637.84C501.48 696.85 453.48 744.88 394.47 744.88H176.47C117.46 744.88 69.44 696.85 69.44 637.84V-33.06C69.44-34.31 69.77-35.47 69.81-36.71V-38.11C69.81-97.12 117.83-145.12 176.84-145.12H847.74C906.75-145.12 954.76-97.12 954.76-38.11V179.9C954.76 238.91 906.74 286.91 847.74 286.91ZM879.14-38.11C879.14-55.42 865.06-69.5 847.74-69.5H759.43V11.44C759.43 32.32 742.5 49.25 721.62 49.25S683.81 32.32 683.81 11.44V-69.5H557.03V64.08C557.03 84.96 540.1 101.89 519.22 101.89 498.34 101.89 481.41 84.96 481.41 64.08V-69.5H394.47V-64.45H354.64V11.45C354.64 32.33 337.71 49.26 316.83 49.26S279.02 32.33 279.02 11.45V-64.45H176.46C159.79-64.45 146.43-51.3 145.43-34.89V64.08H228.98C249.86 64.08 266.79 81.01 266.79 101.89 266.79 122.77 249.86 139.7 228.98 139.7H145.43V179.9H145.06V266.47H281.61C302.49 266.47 319.42 283.4 319.42 304.28 319.42 325.16 302.49 342.09 281.61 342.09H145.06V468.87H228.98C249.86 468.87 266.79 485.8 266.79 506.68 266.79 527.56 249.86 544.49 228.98 544.49H145.06V637.83C145.06 655.16 159.14 669.24 176.46 669.24H394.46C411.77 669.24 425.85 655.16 425.85 637.83V239.91H425.9V211.28H847.73C865.05 211.28 879.13 197.2 879.13 179.89V-38.11Z"  horiz-adv-x="1024" vert-adv-y="1024"  />

      
      <glyph glyph-name="shadow" unicode="&#xE19D;" d="M736 716V524.128L928 524V-116H288L287.872 76H96V716H736ZM351.936 52.832L352-52 456.64-51.936 351.936 52.832ZM509.76 76H419.264L547.2-51.936H637.696L509.76 76ZM690.752 76H600.256L728.192-51.936H818.688L690.752 76ZM736 211.744V121.248L863.936-6.688V83.808L736 211.744ZM672 652H160V140H672V652ZM736 392.736V302.24L863.936 174.304V264.8L736 392.736ZM759.168 460.064L863.936 355.36 864 460 759.168 460.064Z"  horiz-adv-x="1024" vert-adv-y="1024"  />

      
      <glyph glyph-name="choice" unicode="&#xE19E;" d="M639.15 76.12H276.41C210.7 76.12 157.24 129.58 157.24 195.29V507.84C157.24 573.55 210.7 627.01 276.41 627.01H510.99C534.46 627.01 553.49 607.98 553.49 584.51S534.46 542.01 510.99 542.01H276.41C257.57 542.01 242.24 526.68 242.24 507.84V195.29C242.24 176.45 257.57 161.12 276.41 161.12H639.15C640.02 161.12 640.73 161.83 640.73 162.7V246.9C640.73 270.37 659.76 289.4 683.23 289.4S725.73 270.37 725.73 246.9V162.7C725.73 114.96 686.89 76.12 639.15 76.12ZM682.08-57.77H320.33C296.86-57.77 277.83-38.74 277.83-15.27S296.86 27.23 320.33 27.23H682.08C702.83 27.23 727.59 38.42 746.7 56.42 758.67 67.69 778.74 91.45 778.74 123.89V394.74C778.74 418.21 797.77 437.24 821.24 437.24S863.74 418.21 863.74 394.74V123.9C863.74 76.19 842.87 30.26 804.99-5.43 769.69-38.7 724.89-57.77 682.08-57.77ZM459.93 220.05C448.66 220.05 437.85 224.52 429.88 232.5L302.02 360.36C285.42 376.96 285.42 403.87 302.02 420.46 318.62 437.06 345.53 437.06 362.12 420.46L459.49 323.09 774.98 647.9C791.33 664.74 818.24 665.13 835.08 648.78 851.92 632.43 852.31 605.52 835.95 588.68L490.42 232.94A42.55 42.55 0 0 0 460.24 220.05H459.93Z"  horiz-adv-x="1024" vert-adv-y="1024"  />

      
      <glyph glyph-name="out" unicode="&#xE19F;" d="M720.9984 430.4L545.9008 605.4998V76C545.9008 58.3008 531.6 44 513.9008 44 496.2016 44 481.9008 58.3008 481.9008 76V608.4998L303.8 430.4C297.4998 424.1984 289.4 420.9984 281.2 420.9984 273 420.9984 264.8 424.0992 258.6 430.4 246.1002 442.8992 246.1002 463.2 258.6 475.6992L481.2992 698.3997C498.4992 715.5997 526.4 715.5997 543.5008 698.3997L766.3008 475.6C778.8 463.1008 778.8 442.8 766.3008 430.3008 753.8016 417.9008 733.5008 417.9008 720.9984 430.4ZM915.4976 572.9994H865.9968C848.2976 572.9994 833.9968 558.6995 833.9968 540.9994 833.9968 523.2995 848.2976 508.9994 865.9968 508.9994H895.1968V-48.3008H128.297V508.9994H159.9968C177.697 508.9994 191.9968 523.2995 191.9968 540.9994 191.9968 558.6995 177.697 572.9994 159.9968 572.9994H107.9968C83.897 572.9994 64.297 553.3994 64.297 529.2995V-68.6016C64.297-92.7008 83.897-112.3008 107.9968-112.3008H915.3984C939.4976-112.3008 959.0976-92.7008 959.0976-68.6016V529.2995C959.1968 553.3994 939.5968 572.9994 915.4976 572.9994Z"  horiz-adv-x="1024" vert-adv-y="1024"  />

      
      <glyph glyph-name="paging" unicode="&#xE1A0;" d="M921.6 161.76C944.2208 161.76 962.56 143.4208 962.56 120.8V-201.76C962.56-204.4768 961.4816-207.0816 959.5616-209.0016 957.6416-210.9216 955.0368-212 952.32-212H890.88C888.1632-212 885.5584-210.9216 883.6384-209.0016 881.7184-207.0816 880.64-204.4768 880.64-201.76V79.84H143.36V-201.76C143.36-204.4768 142.2813-207.0816 140.3606-209.0016 138.4403-210.9216 135.8358-212 133.12-212H71.68C68.9642-212 66.3597-210.9216 64.4394-209.0016 62.5187-207.0816 61.44-204.4768 61.44-201.76V120.8C61.44 143.4208 79.7786 161.76 102.4 161.76H921.6ZM153.6 346.08C156.3158 346.08 158.9203 345.0016 160.8406 343.0816 162.7613 341.1616 163.84 338.5568 163.84 335.84V264.16C163.84 261.4432 162.7613 258.8384 160.8406 256.9184 158.9203 254.9984 156.3158 253.92 153.6 253.92H10.24C7.5242 253.92 4.9196 254.9984 2.9992 256.9184 1.0789 258.8384 0 261.4432 0 264.16V335.84C0 338.5568 1.0789 341.1616 2.9992 343.0816 4.9196 345.0016 7.5242 346.08 10.24 346.08H153.6ZM440.32 346.08C443.0368 346.08 445.6416 345.0016 447.5616 343.0816 449.4816 341.1616 450.56 338.5568 450.56 335.84V264.16C450.56 261.4432 449.4816 258.8384 447.5616 256.9184 445.6416 254.9984 443.0368 253.92 440.32 253.92H296.96C294.2442 253.92 291.6397 254.9984 289.7194 256.9184 287.7987 258.8384 286.72 261.4432 286.72 264.16V335.84C286.72 338.5568 287.7987 341.1616 289.7194 343.0816 291.6397 345.0016 294.2442 346.08 296.96 346.08H440.32ZM727.04 346.08C729.7568 346.08 732.3616 345.0016 734.2816 343.0816 736.2016 341.1616 737.28 338.5568 737.28 335.84V264.16C737.28 261.4432 736.2016 258.8384 734.2816 256.9184 732.3616 254.9984 729.7568 253.92 727.04 253.92H583.68C580.9632 253.92 578.3584 254.9984 576.4384 256.9184 574.5184 258.8384 573.44 261.4432 573.44 264.16V335.84C573.44 338.5568 574.5184 341.1616 576.4384 343.0816 578.3584 345.0016 580.9632 346.08 583.68 346.08H727.04ZM1013.76 346.08C1016.4768 346.08 1019.0816 345.0016 1021.0016 343.0816 1022.9216 341.1616 1024 338.5568 1024 335.84V264.16C1024 261.4432 1022.9216 258.8384 1021.0016 256.9184 1019.0816 254.9984 1016.4768 253.92 1013.76 253.92H870.4C867.6832 253.92 865.0784 254.9984 863.1584 256.9184 861.2384 258.8384 860.16 261.4432 860.16 264.16V335.84C860.16 338.5568 861.2384 341.1616 863.1584 343.0816 865.0784 345.0016 867.6832 346.08 870.4 346.08H1013.76ZM133.12 812C135.8358 812 138.4403 810.9211 140.3606 809.0008 142.2813 807.0804 143.36 804.4758 143.36 801.76V520.16H512 880.64V801.76C880.64 804.4758 881.7184 807.0804 883.6384 809.0008 885.5584 810.9211 888.1632 812 890.88 812H952.32C955.0368 812 957.6416 810.9211 959.5616 809.0008 961.4816 807.0804 962.56 804.4758 962.56 801.76V479.2C962.56 456.5792 944.2208 438.24 921.6 438.24H102.4C79.7786 438.24 61.44 456.5792 61.44 479.2V801.76C61.44 804.4758 62.5187 807.0804 64.4394 809.0008 66.3597 810.9211 68.9642 812 71.68 812H133.12Z"  horiz-adv-x="1024" vert-adv-y="1024"  />

      
      <glyph glyph-name="contents" unicode="&#xE1A1;" d="M941.0144-212H132.5949C115.9181-212 102.3984-198.48 102.3984-181.8048V781.8036C102.3984 798.4804 115.9181 812 132.5949 812H941.0144C957.6928 812 971.2128 798.4804 971.2128 781.8036V-181.8048C971.2128-198.48 957.6928-212 941.0144-212ZM910.8192 751.6074H162.791V-151.6064H910.8192V751.6074ZM288.5456 517.6813H603.504C620.1824 517.6813 633.7024 504.1616 633.7024 487.4848 633.7024 470.8096 620.1824 457.2896 603.504 457.2896H288.5456C271.8688 457.2896 258.3491 470.8096 258.3491 487.4848 258.3491 504.1616 271.8688 517.6813 288.5456 517.6813ZM288.5456 331.152H603.504C620.1824 331.152 633.7024 317.632 633.7024 300.9568 633.7024 284.2784 620.1824 270.7584 603.504 270.7584H288.5456C271.8688 270.7584 258.3491 284.2784 258.3491 300.9568 258.3491 317.632 271.8688 331.152 288.5456 331.152ZM288.5456 144.624H603.504C620.1824 144.624 633.7024 131.104 633.7024 114.4256 633.7024 97.7504 620.1824 84.2304 603.504 84.2304H288.5456C271.8688 84.2304 258.3491 97.7504 258.3491 114.4256 258.3491 131.104 271.8688 144.624 288.5456 144.624ZM709.7664 516.5344C727.0752 516.5344 741.1072 502.5018 741.1072 485.1904 741.1072 467.8816 727.0752 453.8496 709.7664 453.8496 692.4544 453.8496 678.4224 467.8816 678.4224 485.1904 678.4224 502.5018 692.4544 516.5344 709.7664 516.5344ZM709.7664 332.2976C727.0752 332.2976 741.1072 318.2656 741.1072 300.9568 741.1072 283.6448 727.0752 269.6128 709.7664 269.6128 692.4544 269.6128 678.4224 283.6448 678.4224 300.9568 678.4224 318.2656 692.4544 332.2976 709.7664 332.2976ZM709.7664 146.9152C727.0752 146.9152 741.1072 132.8832 741.1072 115.5744 741.1072 98.2624 727.0752 84.2304 709.7664 84.2304 692.4544 84.2304 678.4224 98.2624 678.4224 115.5744 678.4224 132.8832 692.4544 146.9152 709.7664 146.9152Z"  horiz-adv-x="1024" vert-adv-y="1024"  />

      
      <glyph glyph-name="merge-up" unicode="&#xE1A2;" d="M992.0704 435.0848L827.344 333.4304 788.016 396.4992 943.0976 491.4784 572.0928 720.76C554.4864 731.6682 534.1856 737.447 513.472 737.447 492.7616 737.447 472.4608 731.6682 454.8544 720.76L83.848 491.4784 234.4762 397.2416 195.1498 334.1728 31.9071 435.0848C22.1416 440.896 14.0616 449.1552 8.4658 459.0464 2.87 468.9344-0.0479 480.1152 0.0006 491.4784-0.0309 502.9392 2.8878 514.2154 8.4758 524.2218 14.0638 534.2282 22.1331 542.6282 31.9071 548.6131L414.784 783.8309C443.8656 802.2321 477.5744 812.0004 511.9872 812.0004 546.4032 812.0004 580.1088 802.2321 609.1936 783.8309L992.0704 550.0973C1001.8432 544.112 1009.9136 535.7123 1015.5008 525.7059 1021.088 515.6995 1024.0096 504.4234 1023.9776 492.9622 1024.288 481.3504 1021.4944 469.8624 1015.8848 459.6896 1010.2784 449.5168 1002.0576 441.0208 992.0704 435.0848ZM823.632 188.736L779.1136 129.376 549.088 300.7808V-156.2976H474.8896V300.7808L244.8643 129.376 200.3437 188.736 511.9872 420.9856 823.632 188.736Z"  horiz-adv-x="1024" vert-adv-y="1024"  />

      
      <glyph glyph-name="merge-down" unicode="&#xE1A3;" d="M992.0704 220.6176L827.344 322.272 788.016 259.2 943.0976 164.224 572.0928-65.0592C554.4864-75.9648 534.1856-81.744 513.472-81.744 492.7616-81.744 472.4608-75.9648 454.8544-65.0592L83.848 164.224 234.4762 258.4608 195.1498 321.5296 31.9071 220.6176C22.1416 214.8064 14.0616 206.5472 8.4658 196.656 2.87 186.768-0.0479 175.5872 0.0006 164.224-0.0309 152.7616 2.8878 141.488 8.4758 131.4816 14.0638 121.4752 22.1331 113.0752 31.9071 107.088L414.784-128.128C443.8656-146.5312 477.5744-156.2976 511.9872-156.2976 546.4032-156.2976 580.1088-146.5312 609.1936-128.128L992.0704 105.6064C1001.8432 111.5904 1009.9136 119.9904 1015.5008 129.9968 1021.088 140.0032 1024.0096 151.28 1023.9776 162.7392 1024.288 174.352 1021.4944 185.84 1015.8848 196.0128 1010.2784 206.1856 1002.0576 214.6816 992.0704 220.6176ZM823.632 466.9632L779.1136 526.3254 549.088 354.9216V812H474.8896V354.9216L244.8643 526.3254 200.3437 466.9632 511.9872 234.7136 823.632 466.9632Z"  horiz-adv-x="1024" vert-adv-y="1024"  />

      
      <glyph glyph-name="arrow-down" unicode="&#xE1A4;" d="M480 812V-48.8L156.8 275.4656 96 214.6656 522.6656-212 949.3344 214.6656 888.5344 275.4656 565.3344-48.8V812H480Z"  horiz-adv-x="1024" vert-adv-y="1024"  />

      
      <glyph glyph-name="arrow-up" unicode="&#xE1A5;" d="M480-212V648.8L156.8 324.5344 96 385.3344 522.6656 812 949.3344 385.3344 888.5344 324.5344 565.3344 648.8V-212H480Z"  horiz-adv-x="1024" vert-adv-y="1024"  />

      
      <glyph glyph-name="luoshishua" unicode="&#xE1A7;" d="M220.3974 8.5974V-35.6821H0V8.5974H88.1589V672.7808H0V717.0596H220.3974V672.7808H132.2384V8.5974H220.3974ZM661.8024-35.6821L328.9007 318.6151 574.5793 483.0993 840.9007 199.7395 661.8024-35.6821ZM850.0895 542.5276L956.9924 642.4636 1024 571.677 917.0971 471.7404 850.0895 542.5276ZM910.7497 265.7367C891.0665 247.342 860.1363 248.2744 841.5483 267.8355L640.5764 480.2026C622.063 499.7627 623.0023 530.4227 642.6855 548.8964L678.3017 582.1954C697.9848 600.5915 728.9151 599.5824 747.4285 580.022L948.4749 367.7298C966.9883 348.1721 966.0491 317.4317 946.3659 299.037L910.7497 265.7367Z"  horiz-adv-x="1024" vert-adv-y="1024"  />

      
      <glyph glyph-name="visual" unicode="&#xE1A8;" d="M945-159.712H504.7938V383.0299H945V-159.712H945ZM565.4053-98.4603H884.3861V321.7726H565.4053V-98.4603ZM440.1952-159.712H0V66.0398H440.1952V-159.712ZM60.5994-98.4603H379.5939V4.7731H60.5994V-98.4603ZM945 416.3372H0V772.625H945V416.3372ZM60.5994 478.2622H884.3861V711.3559H60.5994V478.2622ZM440.1952 115.3153H0V383.0299H440.1952V115.3153ZM60.5994 175.9276H379.5939V321.7726H60.5994V175.9276Z"  horiz-adv-x="945" vert-adv-y="1024"  />

      
      <glyph glyph-name="html" unicode="&#xE1AB;" d="M945.0157 772.6268V-172.375H0.0192V772.6268H945.0157ZM877.5191 705.1268H67.5192V-104.8705H877.5191V705.1268ZM945.0157 570.1265V502.6267H33.7693V570.1265H945.0157ZM498.7096 415.4166L563.6445 397.0568 446.329-17.6627 381.3941 0.6939 498.7096 415.4166ZM313.8266 391.5215L361.5491 343.732 216.4916 198.7415 361.5491 53.684 313.8266 5.9622 121.0466 198.7415 313.8266 391.5215ZM655.2417 391.5215L607.5192 343.732 752.5767 198.7415 607.5192 53.684 655.2417 5.9622 848.0194 198.7415 655.2417 391.5215Z"  horiz-adv-x="945" vert-adv-y="1024"  />

      
      <glyph glyph-name="css" unicode="&#xE1AC;" d="M637.4739 75.9189H473.652C460.3517 75.9189 449.5698 64.413 449.5698 50.2155V-105.2957H475.7927L637.4739 71.3228V75.9189ZM637.4739 127.31V208.6386C637.4739 222.6472 648.0512 233.98 661.0839 233.98 674.1167 233.98 684.6939 222.6472 684.6939 208.6386V60.9502C684.6939 54.2921 682.2542 47.9174 677.9257 43.164L502.5349-148.4233C500.4116-150.7922 497.8161-152.6889 494.916-153.9953 492.0151-155.3017 488.8742-155.9864 485.6931-156.01H132.2199C72.2505-156.01 23.6139-103.7847 23.6139-39.3609V640.2766C23.6139 704.6847 72.2505 756.9099 132.2199 756.9099H576.0879C636.0573 756.9099 684.6939 704.6847 684.6939 640.2609V595.1343C684.6939 581.1257 674.1167 569.7929 661.0839 569.7929 648.0512 569.7929 637.4739 581.1257 637.4739 595.1343V640.2766C637.4739 676.6832 609.9919 706.2115 576.0879 706.2115H132.2199C98.316 706.2115 70.8339 676.6832 70.8339 640.2609V-39.3451C70.8339-75.7517 98.316-105.28 132.2199-105.28H401.3739V50.2312C401.3739 92.7922 433.7354 127.31 473.652 127.31H637.4739ZM259.9186 512.94C285.1026 512.94 304.8248 506.3449 318.5343 493.1548 331.7559 480.5628 337.7529 463.1859 336.9816 441.6063H302.8258C301.8814 455.6936 297.2066 465.8774 288.5496 472.4725 280.2074 479.0833 268.4811 482.0739 253.4966 482.0739 231.0042 482.0739 212.8087 474.5659 198.4853 458.9833 185.3897 445.195 176.6854 426.008 172.0421 401.4378 167.3044 376.2538 168.7367 356.7677 176.3706 343.2785 184.7443 328.8922 200.7204 321.3999 224.1101 321.3999 239.3779 321.3999 252.7096 325.3035 263.6647 332.4966 275.3752 340.587 284.8822 352.8799 292.1383 369.0607H326.2941C316.7714 343.8767 302.0073 324.4063 281.6555 310.319 263.2145 297.2973 241.1588 290.3788 218.5853 290.5338 182.9185 290.5338 158.3798 301.9138 145.174 324.1072 133.5106 343.2785 130.882 369.0607 136.9892 401.4378 142.9704 433.2012 155.6725 459.2823 175.3003 479.0675 197.5724 501.8433 225.747 512.94 259.9186 512.94V512.94ZM477.3194 512.94C502.5034 512.94 521.3285 507.8402 533.4325 497.3574 546.3393 486.2607 551.7539 468.868 549.4401 445.4941H514.6547C514.151 458.6842 510.2633 468.2856 503.5423 473.9835 496.8843 479.9647 485.4098 482.672 469.8115 482.672 456.3223 482.672 445.7922 480.8619 437.8593 476.9741 428.0375 472.4725 422.4341 464.9802 420.498 454.7807 418.7981 445.8089 422.1822 438.3009 431.3586 432.9021 435.4038 430.5096 446.8468 426.008 465.4515 419.7277 492.8391 410.7244 510.0586 403.5313 517.5509 398.7306 534.0307 387.6496 540.4526 372.3661 536.7222 352.5809 533.102 333.3938 522.7136 318.1103 505.6514 307.0136 488.6208 296.2317 466.27 290.5338 438.9925 290.5338 412.6123 290.5338 392.8901 295.6336 380.1249 305.8173 364.5109 318.4093 358.3565 338.1945 361.9925 365.4719H396.7779C396.1168 349.2755 399.6111 337.5964 407.5912 330.6865 414.8631 324.7053 427.1246 321.3999 444.8163 321.3999 460.3989 321.3999 473.4946 324.1072 483.4423 329.1912 493.4529 334.5901 499.5601 341.4842 501.2442 350.4717 503.4006 361.8675 498.1907 370.855 486.2598 377.4501 482.4507 379.5592 469.5754 384.3442 447.2403 391.5374 422.4498 399.9425 407.1033 405.9395 401.4841 409.5282 386.8459 419.4129 381.4786 433.815 385.0358 452.6873 388.5931 471.5753 399.2018 486.5598 417.4287 497.3574 434.3965 507.8402 454.2446 512.94 477.3194 512.94ZM687.8419 512.94C713.0259 512.94 731.8352 507.8402 743.955 497.3574 756.8618 486.2607 762.2607 468.868 759.9469 445.4941H725.1772C724.6735 458.6842 720.7858 468.2856 714.0648 473.9835 707.4068 479.9647 695.9166 482.672 680.334 482.672 666.8448 482.672 656.3147 480.8619 648.3818 476.9741 638.5443 472.4725 632.9408 464.9802 631.0205 454.7807 629.3206 445.8089 632.7047 438.3009 641.8811 432.9021 645.9263 430.5096 657.3693 426.008 675.9582 419.7277 703.3458 410.7244 720.5654 403.5313 728.0576 398.7306 744.5532 387.6496 750.9593 372.3661 747.229 352.5809 743.6088 333.3938 733.2361 318.1103 716.1582 307.0136 699.1433 296.2317 676.7925 290.5338 649.515 290.5338 623.1348 290.5338 603.3968 295.6336 590.6474 305.8173 575.0334 318.4093 568.8633 338.1945 572.515 365.4719H607.2846C606.6235 349.2755 610.1178 337.5964 618.1137 330.6865 625.3699 324.7053 637.6313 321.3999 655.3231 321.3999 670.9057 321.3999 684.0171 324.1072 693.9648 329.1912 703.9754 334.5901 710.0668 341.4842 711.7667 350.4717 713.9074 361.8675 708.7132 370.855 696.7665 377.4501 692.9732 379.5592 680.0821 384.3442 657.7628 391.5374 632.9723 399.9425 617.6258 405.9395 611.9909 409.5282 597.3684 419.4129 592.0011 433.815 595.5583 452.6873 599.1156 471.5753 609.7243 486.5598 627.9512 497.3574 644.919 507.8402 664.7671 512.94 687.8419 512.94V512.94Z"  horiz-adv-x="787" vert-adv-y="1024"  />

      
      <glyph glyph-name="shezhili" unicode="&#xE1AD;" d="M681 126.18A50 50 0 1 0 631 76.18 50 50 0 0 0 681 126.18M681 166.18A90 90 0 1 1 771 76.18 90.1 90.1 0 0 1 681 166.18ZM915 98.42A236.06 236.06 0 0 1 910.95 125.07 12.62 12.62 0 0 1 896.13 134.81 60 60 0 0 0 839.34 233.11 12.62 12.62 0 0 1 838.34 250.8 234.86 234.86 0 0 1 778.72 290 232 232 0 0 1 753.63 299.78 12.63 12.63 0 0 1 737.78 291.78 60 60 0 0 0 624.22 291.78 12.63 12.63 0 0 1 608.37 299.78 232 232 0 0 1 583.28 290 235.43 235.43 0 0 1 523.74 250.85 12.63 12.63 0 0 1 522.74 233.16 60 60 0 0 0 465.94 134.85 12.62 12.62 0 0 1 451.12 125.11 236.06 236.06 0 0 1 447.12 98.46Q446.12 87.46 446.12 76.22T447.12 53.98A235.54 235.54 0 0 1 451.12 27.34 12.62 12.62 0 0 1 465.94 17.59 60 60 0 0 0 522.74-80.72 12.63 12.63 0 0 1 523.74-98.41 237.26 237.26 0 0 1 544.74-115.28 234.14 234.14 0 0 1 608.35-147.34 12.63 12.63 0 0 1 624.2-139.34 60 60 0 0 0 737.76-139.34 12.63 12.63 0 0 1 753.61-147.34 234.34 234.34 0 0 1 817.23-115.28 237.37 237.37 0 0 1 838.23-98.4 12.62 12.62 0 0 1 839.23-80.71 60 60 0 0 0 896.02 17.59 12.62 12.62 0 0 1 910.84 27.34 235.54 235.54 0 0 1 915 53.94Q916 64.94 916 76.18T915 98.42ZM798 8.68A99.79 99.79 0 0 1 790.08-74 12.59 12.59 0 0 0 785-88.8Q778.6-92.85 771.9-96.38A12.57 12.57 0 0 0 756.55-93.38 99.86 99.86 0 0 1 605.43-93.38 12.57 12.57 0 0 0 590.08-96.38Q583.39-92.86 576.98-88.8A12.57 12.57 0 0 0 571.93-74 99.86 99.86 0 0 1 496.4 56.83 12.58 12.58 0 0 0 486.14 68.63Q486.01 72.41 486 76.18T486.14 83.73A12.59 12.59 0 0 0 496.4 95.53 99.86 99.86 0 0 1 571.93 226.39 12.57 12.57 0 0 0 577 241.16Q583.4 245.21 590.1 248.74A12.57 12.57 0 0 0 605.45 245.74 99.86 99.86 0 0 1 756.57 245.74 12.57 12.57 0 0 0 771.92 248.74Q778.61 245.21 785.02 241.16A12.58 12.58 0 0 0 790.09 226.39 99.86 99.86 0 0 1 865.6 95.53 12.58 12.58 0 0 0 875.86 83.73Q876 79.97 876 76.18T875.86 68.62A12.57 12.57 0 0 0 865.6 56.83 99.79 99.79 0 0 1 797.92 8.68ZM224 708A20.27 20.27 0 0 0 244 688V-88A20.27 20.27 0 0 0 224-108H124A20.27 20.27 0 0 0 104-88V688A20.27 20.27 0 0 0 124 708H224M224 748H124A60.18 60.18 0 0 1 64 688V-88A60.18 60.18 0 0 1 124-148H224A60.18 60.18 0 0 1 284-88V688A60.18 60.18 0 0 1 224 748ZM562 708A20.27 20.27 0 0 0 582 688V408A20.27 20.27 0 0 0 562 388H462A20.27 20.27 0 0 0 442 408V688A20.27 20.27 0 0 0 462 708H562M562 748H462A60.18 60.18 0 0 1 402 688V408A60.18 60.18 0 0 1 462 348H562A60.18 60.18 0 0 1 622 408V688A60.18 60.18 0 0 1 562 748ZM900 708A20.27 20.27 0 0 0 920 688V408A20.27 20.27 0 0 0 900 388H800A20.27 20.27 0 0 0 780 408V688A20.27 20.27 0 0 0 800 708H900M900 748H800A60.18 60.18 0 0 1 740 688V408A60.18 60.18 0 0 1 800 348H900A60.18 60.18 0 0 1 960 408V688A60.18 60.18 0 0 1 900 748Z"  horiz-adv-x="1024" vert-adv-y="1024"  />

      
      <glyph glyph-name="nodename" unicode="&#xE1AE;" d="M142.5931-65.0942H439.4245C459.0732-65.3256 474.9336-81.6293 475.1138-101.7827 475.2059-121.9504 459.3394-138.376 439.6743-138.4691H107.1527C87.6665-138.5664 71.7063-122.6149 71.2969-102.6345V592.7259H35.7732C16.063 592.6799 0.0469 609.0286 0.0001 629.2445V775.3117C-0.0454 795.526 15.8954 811.9519 35.6069 811.9999H178.1154C197.8726 812.0466 213.9255 795.6593 213.9726 775.397V629.4134C214.0187 609.1986 198.0774 592.773 178.3663 592.7249H142.5931V324.8192H439.4245C459.0732 324.5878 474.9336 308.2841 475.1138 288.1307 475.2059 267.963 459.3394 251.5374 439.6743 251.4442H142.5931V-65.0942ZM356.4807 775.3117C356.4357 795.526 372.3759 811.9519 392.088 811.9999H1295.2268C1314.9359 812.0466 1330.9488 795.698 1331 775.4836V629.4144C1331.041 609.2006 1315.0997 592.7741 1295.3906 592.7259H392.2539C372.5438 592.6799 356.5278 609.0286 356.4807 629.2445V775.3117ZM617.9557 360.6548C617.8635 380.8226 633.7301 397.2481 653.3951 397.3423H1295.2268C1314.9359 397.3894 1330.9488 381.0406 1331 360.8258V214.7578C1331.0921 194.5901 1315.2225 178.1635 1295.5544 178.0703H653.8107C634.0536 178.0242 618.0007 194.4109 617.9546 214.6738L617.9557 360.6548ZM617.9557-29.2606C617.8635-9.0929 633.7301 7.3337 653.3951 7.4279H1295.2268C1314.9359 7.475 1330.9488-8.8738 1331-29.0886V-175.1577C1331.1843-195.2302 1315.4683-211.6547 1295.8923-211.8441 1295.7285-211.8462 1295.5544-211.8462 1295.3906-211.8451H653.8107C634.0536-211.8973 618.0007-195.5056 617.9546-175.2426L617.9557-29.2606Z"  horiz-adv-x="1331" vert-adv-y="1024"  />

      
      <glyph glyph-name="drag" unicode="&#xE1AF;" d="M156.383 15.867C186.5477 15.867 215.4755 3.884 236.8047-17.4453 258.134-38.7745 270.117-67.6989 270.117-97.8695 270.117-128.0316 258.134-156.9568 236.8047-178.2903 215.4755-199.6154 186.5477-211.6 156.383-211.6 126.2193-211.6 97.2906-199.6154 75.9618-178.2903 54.6326-156.9568 42.65-128.0316 42.65-97.8695 42.65-67.6989 54.6326-38.7745 75.9618-17.4453 97.2906 3.884 126.2193 15.867 156.383 15.867ZM668.183 15.867C698.3468 15.867 727.2755 3.884 748.6047-17.4453 769.934-38.7745 781.917-67.6989 781.917-97.8695 781.917-128.0316 769.934-156.9568 748.6047-178.2903 727.2755-199.6154 698.3468-211.6 668.183-211.6 638.0193-211.6 609.0906-199.6154 587.7614-178.2903 566.4329-156.9568 554.45-128.0316 554.45-97.8695 554.45-67.6989 566.4329-38.7745 587.7614-17.4453 609.0906 3.884 638.0193 15.867 668.183 15.867ZM156.383 413.933C186.5477 413.933 215.4755 401.951 236.8047 380.6217 258.134 359.2924 270.117 330.3638 270.117 300.2 270.117 270.0362 258.134 241.1076 236.8047 219.7783 215.4755 198.449 186.5477 186.467 156.383 186.467 126.2193 186.467 97.2906 198.449 75.9618 219.7783 54.6326 241.1076 42.65 270.0362 42.65 300.2 42.65 330.3638 54.6326 359.2924 75.9618 380.6217 97.2906 401.951 126.2193 413.933 156.383 413.933ZM668.183 413.933C698.3468 413.933 727.2755 401.951 748.6047 380.6217 769.934 359.2924 781.917 330.3638 781.917 300.2 781.917 270.0362 769.934 241.1076 748.6047 219.7783 727.2755 198.449 698.3468 186.467 668.183 186.467 638.0193 186.467 609.0906 198.449 587.7614 219.7783 566.4329 241.1076 554.45 270.0362 554.45 300.2 554.45 330.3638 566.4329 359.2924 587.7614 380.6217 609.0906 401.951 638.0193 413.933 668.183 413.933ZM156.383 812C186.5477 812 215.4755 800.0174 236.8047 778.6883 258.134 757.3591 270.117 728.4307 270.117 698.267 270.117 668.1023 258.134 639.1745 236.8047 617.8453 215.4755 596.516 186.5477 584.533 156.383 584.533 126.2193 584.533 97.2906 596.516 75.9618 617.8453 54.6326 639.1745 42.65 668.1023 42.65 698.267 42.65 728.4307 54.6326 757.3591 75.9618 778.6883 97.2906 800.0174 126.2193 812 156.383 812ZM668.183 812C698.3468 812 727.2755 800.0174 748.6047 778.6883 769.934 757.3591 781.917 728.4307 781.917 698.267 781.917 668.1023 769.934 639.1745 748.6047 617.8453 727.2755 596.516 698.3468 584.533 668.183 584.533 638.0193 584.533 609.0906 596.516 587.7614 617.8453 566.4329 639.1745 554.45 668.1023 554.45 698.267 554.45 728.4307 566.4329 757.3591 587.7614 778.6883 609.0906 800.0174 638.0193 812 668.183 812Z"  horiz-adv-x="853" vert-adv-y="1024"  />

      
      <glyph glyph-name="images" unicode="&#xE1B2;" d="M10.612 798.356L980.8382 798.356 980.8382 22.164 10.612 22.164 10.612 798.356ZM36.8152 770.6368L951.6031 770.6368 951.6031 49.8969 36.8152 49.8969 36.8152 770.6368ZM81.864 687.688L1052.0903 687.688 1052.0903-88.504 81.864-88.504 81.864 687.688ZM109.5832 659.9688L1024.3711 659.9688 1024.3711-60.7711 109.5832-60.7711 109.5832 659.9688ZM154.6321 577.0199L1124.8583 577.0199 1124.8583-199.1721 154.6321-199.1721 154.6321 577.0199ZM182.3512 549.3008L1097.1391 549.3008 1097.1391-171.4391 182.3512-171.4391 182.3512 549.3008ZM975.5217 487.8036L293.0076 487.8036A42.6873 42.6873 0 0 1 250.3204 445.1163L250.3204 32.7988 1018.1677 32.7988 1018.1677 445.1439A42.6873 42.6873 0 0 1 975.4804 487.8311L975.5217 487.8036ZM727.9081 203.5478L579.7007 32.7988 876.088 32.7988 727.9081 203.5478ZM702.2545 32.7988L504.6951 260.4458 307.1357 32.7988 250.3204 32.7988 250.3204-66.7176A42.6873 42.6873 0 0 1 293.0076-109.4049L975.508-109.4049A42.6873 42.6873 0 0 1 1018.1952-66.7176L1018.1952 32.7988 702.2545 32.7988ZM819.1074 345.6826A56.8704 56.8704 0 1 1 932.8483 345.5999L932.8483 345.6826A56.8704 56.8704 0 0 1 819.1074 345.6826ZM1250.7001 292.6042L1250.7001 292.6042"  horiz-adv-x="1137" vert-adv-y="1024"  />

      
      <glyph glyph-name="laoren" unicode="&#xE1B4;" d="M846.2933 152.6421C827.6779 152.6421 810.8331 149.5531 793.9925 143.3707 793.1051 144.1429 792.2176 145.6875 791.3301 146.4597L460.6763 435.3929C439.3984 453.9341 407.4854 461.6593 377.3453 453.9341L376.4587 454.7063C375.5721 453.9341 374.6859 453.9341 373.7993 453.9341 362.275 450.8437 352.5235 446.2084 343.6591 439.2555 140.6549 332.6443 2.3639 74.6133 2.3639-139.3813 2.3639-169.5083-2.9549-183.4176 2.3639-212H637.9691V69.2075L669.8837 41.3931C675.2043 36.7595 681.408 32.8981 686.7285 29.8048 690.2741 0.4501 719.5264-21.1819 753.2117-18.0928 779.8059-15.7717 801.9712 1.2224 807.2875 24.3989H808.1749V35.2149C808.1749 52.9813 825.0197 66.8907 844.5184 66.8907 864.9088 66.8907 880.8661 52.2091 880.8661 35.2149V-212H978.3808V35.2149C980.1515 100.1067 919.872 152.6421 846.2933 152.6421ZM1022.7029 673.3367C1017.3824 690.3326 957.1029 711.9637 938.4875 708.1011L926.9632 705.7835 869.3419 762.9521C863.1381 769.1324 832.9941 796.1713 809.0624 808.5321 776.2603 825.5281 519.1808 776.8577 486.3829 732.0499 472.2005 712.7364 465.9925 689.5603 463.3344 679.517L442.944 591.447 431.4197 589.1294C412.8043 584.4941 372.9126 538.9137 377.3453 521.9179 382.6641 504.922 401.28 494.8787 420.7829 499.514H421.6691L498.7947 517.2826C518.2976 429.2126 605.1712 365.8645 707.1147 365.8645 824.1323 365.8645 918.9845 449.2988 918.9845 551.2747 918.9845 572.1331 914.5515 593.7647 906.5728 613.0782L996.9963 634.7093C1016.4992 639.3446 1028.0235 656.3405 1022.7029 673.3367ZM858.7051 771.4499L872 760.6345C875.5456 755.9991 873.7749 759.0891 858.7051 771.4499Z"  horiz-adv-x="1024" vert-adv-y="1024"  />

      
      <glyph glyph-name="mozhangai" unicode="&#xE1B5;" d="M932.6263-128.9499C931.9899-131.872 931.3829-134.8014 930.7136-137.7161 922.4485-173.5561 881.5872-193.8569 846.4165-170.7511 834.7392-163.0821 828.4818-150.8489 823.8811-137.771 806.9339-89.5589 789.7637-41.4272 772.7689 6.7666 761.9767 37.3696 751.3856 68.0457 740.6007 98.6523 738.2857 105.2242 735.2101 111.5328 733.0816 118.1559 731.5931 122.7931 729.2123 124.4791 724.2862 124.4718 652.8329 124.384 581.3797 124.4974 509.9264 124.512 471.1387 124.523 432.3438 123.7915 393.5781 124.5961 363.1272 125.2288 334.6864 147.9762 329.6823 181.3879 325.6097 208.5824 322.3717 235.8976 318.6041 263.1397 314.2755 294.4411 309.6635 325.7061 305.3744 357.0149 300.6179 391.7394 296.1298 426.4969 291.4432 461.231 288.9066 480.0203 286.0101 498.7621 283.6041 517.5678 276.8516 570.3495 310.8549 614.4967 358.8027 622.3984 395.4907 628.4443 425.1099 615.5562 448.0183 586.3857 460.4087 570.6015 464.4498 552.1183 466.9074 532.8971 469.7125 510.9637 472.8247 489.0699 475.8272 467.1621 476.7159 460.6875 477.8752 454.2429 478.5554 447.7464 479.0601 442.9614 482.187 441.9301 486.0014 441.9337 540.6647 442.0251 595.328 442.1861 649.9913 442.3067 677.7161 442.3689 699.4395 418.0416 694.0233 389.0295 690.7392 371.4642 674.9733 355.3947 656.9947 354.7035 625.9895 353.5113 594.9403 353.6539 563.9058 353.3065 555.9662 353.2297 548.0265 353.2809 540.0869 353.4565 529.0203 353.6905 517.9575 354.2464 506.891 354.3305 502.2427 354.3671 497.5909 353.5625 491.7541 353.0322 492.5696 345.5058 493.1547 338.656 494.0727 331.8501 497.0898 309.483 500.4032 287.1525 503.1753 264.7561 503.7714 259.9543 505.9877 258.6377 510.069 258.5902 514.6039 258.5353 519.1387 258.4805 523.6736 258.4768 597.8697 258.4 672.0658 258.1769 746.2583 258.3817 763.1945 258.4293 778.8251 255.573 792.587 245.099 803.9717 236.4279 810.7154 224.7031 815.3893 211.5593 829.0889 173.013 842.7337 134.4448 856.4078 95.8912 867.7632 63.8729 879.1223 31.8619 890.4923-0.1454 903.5227-36.8265 916.619-73.4857 929.5433-110.2034 931.0464-114.4713 931.6206-119.0647 932.6299-123.5081 932.6263-125.3221 932.6263-127.1397 932.6263-128.9499ZM64 122.9211C64.9095 130.3598 66.2795 137.7765 66.643 145.2443 67.7051 166.9861 72.0216 188.0622 77.8807 208.9774 87.8248 244.4663 103.71 277.216 124.7283 307.1899 143.7451 334.3077 166.6589 358.1851 192.9999 378.5042 214.6937 395.2393 238.091 409.1584 263.3103 419.9323 264.8828 420.6053 266.6953 420.715 269.2454 421.2745 271.657 401.4382 274.0005 382.1979 276.3315 362.9577 276.495 361.6192 276.3494 360.2002 276.7225 358.9312 280.1456 347.2539 280.998 347.0821 268.9349 340.7552 247.2916 329.4034 228.3824 314.2848 211.4545 297.0523 192.6978 277.9621 177.1611 256.2642 165.4115 231.9333 154.1222 208.5531 145.5002 184.3392 141.8021 158.677 138.1541 133.3769 137.3385 108.0475 141.0326 82.4256 145.1366 53.9547 153.2208 26.965 166.1645 1.5003 179.5822-24.9006 197.1054-48.3502 218.7067-68.8375 241.306-90.2683 267.1133-106.7694 295.5363-118.827 316.5085-127.7248 338.5223-134.037 361.4632-135.9534 374.0343-137.003 386.6405-138.4622 399.2174-138.3671 437.1675-138.0891 473.0661-128.7707 507.1579-112.2405 535.6398-98.4311 560.5742-79.8821 581.9977-56.5751 602.3022-34.4896 618.0608-9.5552 629.9026 18.0014 638.9431 39.0373 644.085 61.0752 648.1518 83.4459 649.1063 88.683 648.0494 96.0814 651.1214 98.6487 654.3909 101.3842 661.4674 99.691 666.8837 99.7129 682.7666 99.7824 698.6459 99.6983 714.5289 99.7678 722.5125 99.797 723.8363 98.8901 722.7538 90.8078 720.6839 75.3856 718.8553 59.8574 715.4542 44.7022 710.1221 20.9527 702.3506-2.0837 691.5474-24.0155 679.2119-49.0597 664.4151-72.3081 646.3707-93.8304 629.1639-114.347 609.9931-132.3365 588.6537-148.267 562.9806-167.4341 534.901-181.9602 504.7918-192.8293 480.7131-201.5223 455.9214-206.9166 430.6432-210.3762 426.4265-210.9541 422.2025-211.4624 417.9858-212H370.3333C368.3877-211.5392 366.4677-210.9358 364.4968-210.6359 350.6981-208.544 336.4988-207.904 323.1737-204.1481 300.7514-197.8286 278.2815-190.9239 256.9648-181.664 239.213-173.9474 222.2892-163.616 206.464-152.3813 190.2142-140.843 174.664-127.8491 160.7848-113.5717 145.6322-97.9849 131.663-80.9536 119.1687-63.1543 105.7046-43.9726 95.5209-22.7831 86.9928-0.7269 73.4296 34.3488 66.4046 70.4997 65.348 107.9634 65.284 110.2382 64.467 112.491 64 114.7547V122.9211ZM403.0354 811.966C449.4811 812.5229 489.2855 774.0045 489.845 727.9358 490.4302 679.8166 454.1477 641.0655 406.7218 639.2406 355.2666 637.261 319.8051 678.0586 317.1511 719.6721 313.7525 772.9629 357.8032 813.3399 403.0354 811.966Z"  horiz-adv-x="1024" vert-adv-y="1024"  />

      
      <glyph glyph-name="lock" unicode="&#xE1B6;" d="M203.7068 444.9388V529.325C203.7068 669.1517 317.0253 782.4821 456.8638 782.4821 596.7031 782.4821 710.0216 669.2123 710.0216 529.325V444.9388H722.0889C795.2872 444.9388 854.679 385.495 854.679 312.333V-49.3236C854.679-122.5793 795.3816-181.9239 722.0889-181.9239H191.6521C118.4412-181.9239 59.0455-122.4849 59.0455-49.3236V312.333C59.0455 385.5918 118.3444 444.9388 191.6395 444.9388H203.7068ZM276.0375 444.9388H637.6909V529.325C637.6909 629.2614 556.7648 710.1513 456.8638 710.1513 356.9754 710.1513 276.0375 629.2016 276.0375 529.325V444.9388ZM131.3761 312.333V-49.3236C131.3761-82.5465 158.404-109.5972 191.6395-109.5972H722.0771C729.9947-109.6051 737.8375-108.0541 745.1544-105.031 752.4713-102 759.1199-97.5598 764.7189-91.9623 770.318-86.3648 774.7575-79.7123 777.7837-72.3986 780.8092-65.0848 782.3617-57.2357 782.3523-49.3236V312.333C782.3523 345.5567 755.3244 372.6081 722.0889 372.6081H191.6521C183.7337 372.6176 175.8909 371.0651 168.574 368.0396 161.2571 365.0133 154.6086 360.5739 149.0095 354.9756 143.4104 349.3765 138.971 342.728 135.9447 335.4103 132.9192 328.0934 131.3667 320.2506 131.3761 312.333Z"  horiz-adv-x="866" vert-adv-y="1024"  />

      
      <glyph glyph-name="safe-o" unicode="&#xE1B8;" d="M943.0821 640.0002C940.683 640.1999 697.9855 665.3003 529.2859 787.8001 524.1856 791.5001 518.2859 793.4001 511.9854 793.4001 505.7858 793.4001 499.7859 791.5001 494.6856 787.8001 326.8857 666.0003 83.2856 640.1999 80.8858 640.0002 65.6857 638.6002 54.2858 625.9004 54.2858 610.6999 54.2858 604 54.8857 444.9004 109.086 266.3002 141.1855 160.5005 185.4859 69.8999 240.986-2.8992 311.2858-95.1982 399.4858-158.8983 502.9859-192.0978 505.886-192.9975 508.8856-193.5022 511.9854-193.5022 515.0859-193.5022 518.0855-192.9975 520.8854-192.0978 624.4857-158.8983 712.5855-95.3006 782.8846-2.8992 838.283 69.7975 882.688 160.3001 914.7831 266.3002 968.8869 444.9004 969.589 604 969.589 610.6999 969.6841 625.9004 958.2885 638.5 943.0821 640.0002ZM910.0873 584.8L909.9849 583.2004C907.0885 525.1001 896.5851 408.8 858.5874 283.3 791.8885 63.2 675.486-76.8027 512.5859-132.8009L511.9854-132.9984 511.3856-132.8009C348.9858-76.8978 232.6857 62.6002 165.7856 281.9001 125.9856 412.4001 116.3856 536.1 113.9858 583.2998L113.8856 584.9002 115.3858 585.0999C185.9855 595.3999 365.8854 629.8999 510.886 727.5003L511.7857 728.2002 512.7856 727.5003C657.9858 629.8999 837.888 595.3999 908.4855 585.0004L910.0873 584.8ZM641.7854 460.9999L466.9857 231.6999 377.9855 307.8C372.6855 312.3004 365.8854 314.8005 358.8857 314.8005 350.2855 314.8005 342.0855 311.1002 336.4857 304.5005 325.986 292.2 327.386 273.5003 339.7859 263L452.4859 166.5999C457.6856 162.2003 464.8858 159.6001 472.0859 159.6001 472.9856 159.6001 473.886 159.6001 474.7856 159.7003 482.786 160.5005 490.1859 164.7003 495.0857 171.1003L688.7856 425.0999C693.5859 431.4004 695.5856 439.1002 694.4856 446.9001 693.4857 454.7001 689.3861 461.6004 683.1857 466.4 670.0859 476.4001 651.5858 473.9001 641.7854 460.9999Z"  horiz-adv-x="1024" vert-adv-y="1024"  />

      
      <glyph glyph-name="workweixin" unicode="&#xE1BB;" d="M702.72-37.92C625.92-68.64 544-73.76 462.08-68.64 426.24-63.52 390.4-58.4 354.56-48.16 349.44-48.16 344.32-48.16 339.2-53.28 293.12-73.76 247.04-99.36 206.08-119.84 190.72-130.08 175.36-130.08 160-119.84S144.64-94.24 144.64-73.76C154.88-37.92 154.88-2.08 160 33.76 160 38.88 154.88 44 154.88 49.12 103.68 100.32 62.72 151.52 32 218.08-19.2 340.96-8.96 463.84 62.72 576.48 134.4 699.36 247.04 765.92 380.16 796.64S641.28 812 764.16 750.56C876.8 694.24 958.72 607.2 994.56 484.32 1009.92 438.24 1015.04 392.16 1009.92 346.08 984.32 371.68 953.6 376.8 922.88 361.44 922.88 392.16 922.88 422.88 912.64 453.6 892.16 525.28 851.2 581.6 800 627.68 712.96 699.36 605.44 730.08 492.8 730.08 375.04 719.84 272.64 678.88 190.72 596.96 124.16 530.4 88.32 448.48 93.44 351.2 98.56 269.28 134.4 202.72 185.6 146.4L226.56 105.44C247.04 90.08 252.16 74.72 241.92 54.24 236.8 33.76 231.68 8.16 226.56-12.32 226.56-17.44 221.44-22.56 226.56-22.56 231.68-27.68 236.8-22.56 236.8-22.56 262.4-7.2 293.12 8.16 318.72 28.64 334.08 38.88 349.44 38.88 369.92 33.76 456.96 8.16 549.12 8.16 636.16 33.76 641.28 33.76 646.4 38.88 646.4 28.64 656.64-2.08 672-22.56 702.72-37.92ZM1214.72 64.48C1214.72 28.64 1189.12 3.04 1158.4-2.08 1107.2-12.32 1066.24-32.8 1030.4-68.64 1020.16-78.88 1015.04-78.88 1004.8-73.76 999.68-68.64 999.68-58.4 1004.8-48.16 1040.64-12.32 1061.12 33.76 1071.36 79.84 1076.48 115.68 1112.32 136.16 1148.16 136.16 1189.12 131.04 1214.72 100.32 1214.72 64.48ZM953.6-212C917.76-212 887.04-186.4 881.92-155.68 876.8-104.48 851.2-63.52 815.36-32.8 810.24-27.68 805.12-22.56 810.24-12.32 815.36 3.04 825.6 3.04 835.84-2.08 846.08-7.2 851.2-17.44 856.32-22.56 887.04-48.16 922.88-63.52 958.72-68.64 994.56-73.76 1020.16-109.6 1015.04-145.44 1020.16-181.28 989.44-212 953.6-212ZM682.24 54.24C682.24 90.08 702.72 115.68 738.56 125.92 789.76 136.16 830.72 156.64 866.56 192.48 876.8 202.72 887.04 202.72 892.16 192.48 897.28 187.36 897.28 177.12 887.04 166.88 856.32 136.16 835.84 100.32 825.6 54.24 825.6 49.12 825.6 38.88 820.48 33.76 810.24-2.08 779.52-22.56 743.68-17.44 707.84-12.32 682.24 18.4 682.24 54.24ZM1035.52 233.44C1050.88 202.72 1066.24 177.12 1086.72 156.64 1096.96 146.4 1096.96 136.16 1091.84 131.04 1086.72 120.8 1076.48 120.8 1066.24 131.04 1040.64 161.76 1004.8 182.24 968.96 192.48 958.72 197.6 948.48 197.6 938.24 197.6 917.76 202.72 897.28 212.96 892.16 238.56 881.92 264.16 881.92 289.76 902.4 310.24 922.88 335.84 948.48 340.96 974.08 335.84 999.68 325.6 1020.16 310.24 1025.28 279.52 1025.28 264.16 1030.4 248.8 1035.52 233.44Z"  horiz-adv-x="1229" vert-adv-y="1024"  />

      
      <glyph glyph-name="honor-o" unicode="&#xE1BC;" d="M875.8771-68.04M727.1851 305.2071C693.5717 226.3243 618.4989 165.3912 550.1008 142.3895 550.7217 139.031 551.131 135.5596 551.131 132.0176 551.131 111.2456 539.8842 93.31 523.3738 83.5449L523.3738-93.0595 662.1314-93.0595 662.1314-149.3218 523.3738-149.3218 467.803-149.3218 328.8479-149.3218 328.8479-93.0595 467.803-93.0595 467.803 83.5449C451.2644 93.2959 440.0035 111.2456 440.0035 132.0176 440.0035 135.4185 440.4269 138.7347 440.9772 141.9662 375.5284 163.4014 305.183 218.9581 269.3823 291.646 174.8076 361.3141 106.6494 472.8085 106.6494 598.9081L106.6494 627.4273C106.6494 649.0178 123.9218 666.5442 145.2159 666.5442L245.4494 666.5442 245.4494 699.3532C245.4494 727.8442 267.8583 750.9305 295.4885 750.9305L695.4344 750.9305C722.994 750.9305 745.3747 727.8442 745.3747 699.3532L745.3747 666.5301 848.8114 666.5301C868.3134 666.5301 884.1041 650.4995 884.1041 630.7294L884.1041 621.6134C884.1041 493.4958 820.1793 379.4473 727.1851 305.2071ZM245.4494 389.8898L245.4494 610.2678 190.5983 610.2678C174.8923 610.2678 162.1355 597.3418 162.1355 581.3959 162.1355 507.3391 196.6803 438.7717 245.7457 385.1342 245.7316 386.7288 245.4494 388.2811 245.4494 389.8898ZM689.8745 652.461C689.8745 675.773 672.4751 694.6541 651.0116 694.6541L339.9677 694.6541C318.476 694.6541 301.0484 675.773 301.0484 652.461L301.0484 399.2738C301.0484 282.7417 416.889 188.2799 495.5884 188.2799 572.1288 188.2799 689.8886 282.7417 689.8886 399.2738L689.8886 652.461ZM828.6039 586.9416C828.6039 599.8254 818.3166 610.2537 805.6163 610.2537L745.3606 610.2537 745.3606 389.8898C745.3606 388.2952 745.0642 386.757 745.0501 385.1907 794.172 438.8423 828.6039 507.5508 828.6039 582.1296L828.6039 586.9416Z"  horiz-adv-x="1024" vert-adv-y="1024"  />

      
      <glyph glyph-name="microphone" unicode="&#xE1BD;" d="M512.547 170.2058C608.547 170.2058 686.6489 248.3077 686.6489 344.3077V577.2896C686.6489 673.2896 608.547 751.3915 512.547 751.3915S338.4451 673.2896 338.4451 577.2896V344.3077C338.4451 248.2968 416.547 170.2058 512.547 170.2058ZM404.0862 577.2896C404.0862 606.106 415.4092 633.2923 435.9768 653.8598S483.7306 685.7504 512.547 685.7504 568.5497 674.4274 589.1173 653.8598 621.0079 606.106 621.0079 577.2896V344.3077C621.0079 315.4913 609.6848 288.305 589.1173 267.7374S541.3634 235.8468 512.547 235.8468 456.5443 247.1699 435.9768 267.7374 404.0862 315.4913 404.0862 344.3077V577.2896ZM714.0103 137.7463C768.0219 191.7579 797.7573 263.2957 797.7573 339.2096 797.7573 357.3374 783.0646 372.0301 764.9368 372.0301S732.1162 357.3374 732.1162 339.2096C732.1162 280.8438 709.1966 225.7819 667.5911 184.1655 625.9747 142.5491 570.9128 119.6403 512.547 119.6403 454.1812 119.6403 399.1193 142.56 357.5029 184.1655 315.8974 225.7709 292.9778 280.8328 292.9778 339.2096 292.9778 357.3374 278.2851 372.0301 260.1573 372.0301S227.3368 357.3374 227.3368 339.2096C227.3368 263.3067 257.0831 191.7579 311.0947 137.7463 357.2403 91.6007 416.1969 63.1891 479.7374 55.892V-83.7921H371.2766C353.1487-83.7921 338.4561-98.4848 338.4561-116.6126S353.1487-149.4332 371.2766-149.4332H653.8393C671.9672-149.4332 686.6598-134.7405 686.6598-116.6126S671.9672-83.7921 653.8393-83.7921H545.3675V55.881C608.8971 63.1891 667.8537 91.6007 714.0103 137.7463Z"  horiz-adv-x="1024" vert-adv-y="1024"  />

      
      <glyph glyph-name="department-o" unicode="&#xE1BE;" d="M877.625 133.8867C869.8906 133.8867 863.5625 140.2148 863.5625 147.9492V215.625C863.5625 262.207 825.7695 300 779.1875 300H554.1875C546.4531 300 540.125 306.3281 540.125 314.0625V398.4375C540.125 406.1719 546.4531 412.5 554.1875 412.5H596.375C642.957 412.5 680.75 450.293 680.75 496.875V665.625C680.75 712.207 642.957 750 596.375 750H427.625C381.043 750 343.25 712.207 343.25 665.625V496.875C343.25 450.293 381.043 412.5 427.625 412.5H469.8125C477.5469 412.5 483.875 406.1719 483.875 398.4375V314.0625C483.875 306.3281 477.5469 300 469.8125 300H244.8125C198.2305 300 160.4375 262.207 160.4375 215.625V147.9492C160.4375 140.2148 154.1094 133.8867 146.375 133.8867 99.793 133.8867 62 96.0937 62 49.5117V-65.625C62-112.207 99.793-150 146.375-150H230.75C277.332-150 315.125-112.207 315.125-65.625V49.5117C315.125 96.0937 277.332 133.8867 230.75 133.8867 223.0156 133.8867 216.6875 140.2148 216.6875 147.9492V215.625C216.6875 231.1816 229.2559 243.75 244.8125 243.75H469.8125C477.5469 243.75 483.875 237.4219 483.875 229.6875V147.0703C483.875 139.7754 477.9863 133.8867 470.6914 133.8867H469.8125C423.2305 133.8867 385.4375 96.0937 385.4375 49.5117V-65.625C385.4375-112.207 423.2305-150 469.8125-150H554.1875C600.7695-150 638.5625-112.207 638.5625-65.625V49.5117C638.5625 96.0937 600.7695 133.8867 554.1875 133.8867H553.3086C546.0137 133.8867 540.125 139.7754 540.125 147.0703V229.6875C540.125 237.4219 546.4531 243.75 554.1875 243.75H779.1875C794.7441 243.75 807.3125 231.1816 807.3125 215.625V147.9492C807.3125 140.2148 800.9844 133.8867 793.25 133.8867 746.668 133.8867 708.875 96.0937 708.875 49.5117V-65.625C708.875-112.207 746.668-150 793.25-150H877.625C924.207-150 962-112.207 962-65.625V49.5117C962 96.0937 924.207 133.8867 877.625 133.8867ZM230.75 77.6367C246.2188 77.6367 258.875 64.9805 258.875 49.5117V-65.625C258.875-81.0938 246.2188-93.75 230.75-93.75H146.375C130.9063-93.75 118.25-81.0938 118.25-65.625V49.5117C118.25 64.9805 130.9063 77.6367 146.375 77.6367H230.75ZM554.1875 77.6367C569.6563 77.6367 582.3125 64.9805 582.3125 49.5117V-65.625C582.3125-81.0938 569.6563-93.75 554.1875-93.75H469.8125C454.3438-93.75 441.6875-81.0938 441.6875-65.625V49.5117C441.6875 64.9805 454.3438 77.6367 469.8125 77.6367H554.1875ZM427.625 468.75C412.1563 468.75 399.5 481.4062 399.5 496.875V665.625C399.5 681.0937 412.1563 693.75 427.625 693.75H596.375C611.8438 693.75 624.5 681.0937 624.5 665.625V496.875C624.5 481.4062 611.8438 468.75 596.375 468.75H427.625ZM905.75-65.625C905.75-81.0938 893.0938-93.75 877.625-93.75H793.25C777.7813-93.75 765.125-81.0938 765.125-65.625V49.5117C765.125 64.9805 777.7813 77.6367 793.25 77.6367H877.625C893.0938 77.6367 905.75 64.9805 905.75 49.5117V-65.625Z"  horiz-adv-x="1024" vert-adv-y="1024"  />

      
      <glyph glyph-name="course" unicode="&#xE1BF;" d="M209.408-124.96C192.512-124.96 178.688-111.136 178.688-94.24L179.712 229.344C179.712 246.24 193.536 260.064 210.432 260.064S241.152 246.24 241.152 229.344L240.128-94.24C240.128-111.136 226.304-124.96 209.408-124.96ZM813.568-124.448C796.672-124.448 782.848-110.624 782.848-93.728L783.872 294.368C783.872 311.264 797.696 325.088 814.592 325.088S845.312 311.264 845.312 294.368L844.288-93.728C844.288-111.136 830.464-124.448 813.568-124.448ZM611.84-124.96C594.944-124.96 581.12-111.136 581.12-94.24L582.144 164.32C582.144 181.216 595.968 195.04 612.864 195.04S643.584 181.216 643.584 164.32L642.56-94.24C642.56-111.136 628.736-124.96 611.84-124.96ZM410.624-124.96C393.728-124.96 379.904-111.136 379.904-94.24L380.928 293.856C380.928 310.752 394.752 324.576 411.648 324.576S442.368 310.752 442.368 293.856L441.344-94.24C441.344-111.136 427.52-124.96 410.624-124.96ZM921.6-130.08L102.4-129.568C85.504-129.568 71.68-115.744 71.68-98.848S85.504-68.128 102.4-68.128L921.6-68.64C938.496-68.64 952.32-82.464 952.32-99.36S938.496-130.08 921.6-130.08ZM115.712 291.808C108.032 291.808 99.84 294.88 93.696 301.024 81.92 313.312 81.92 332.768 93.696 344.544L364.544 612.32C376.32 624.096 395.776 624.096 407.552 612.32L573.952 450.528 847.872 695.776C860.672 707.04 880.128 706.016 891.392 693.216S901.632 660.96 888.832 649.696L593.408 385.504C581.632 374.752 563.2 375.264 551.424 386.528L386.048 547.808 137.216 301.024C131.072 294.88 123.392 291.808 115.712 291.808ZM857.6 509.92C856.064 509.92 854.528 509.92 852.992 510.432 836.096 512.992 824.832 528.352 826.88 545.248L842.752 653.28 734.72 669.152C717.824 671.712 706.56 687.072 708.608 703.968S726.528 732.128 743.424 730.08L881.664 709.6C889.856 708.576 897.024 703.968 901.632 697.312S908.8 682.464 907.264 674.272L886.784 536.032C885.76 521.184 872.448 509.92 857.6 509.92Z"  horiz-adv-x="1024" vert-adv-y="1024"  />

      
      <glyph glyph-name="fan" unicode="&#xE1C0;" d="M923.0714 270.8081C858.8937 356.9131 703.8645 353.7711 636.6116 347.799A132.5002 132.5002 0 0 1 615.3082 385.08C646.5057 404.6453 693.7922 418.0156 712.1318 421.4028 814.1476 440.1881 871.6624 503.8978 866.0468 591.7856 859.941 688.1412 753.2902 745.6783 653.6366 745.6783 600.4226 745.6783 553.0247 729.3219 520.2005 699.5729 447.956 634.0359 455.8 502.5385 467.4099 427.7982A133.1241 133.1241 0 0 1 424.3128 403.5088C406.4188 435.3079 395.2769 481.6139 392.6696 499.7753 378.3857 598.5822 320.4252 658.2808 232.3814 659.9966H228.2366C170.8556 658.4368 119.0455 618.3703 89.5861 552.811 52.84 471.0736 60.2382 374.6511 107.4578 318.2728 145.1176 273.6604 210.9666 251.0422 303.2666 251.0422 333.8624 251.0422 362.4081 253.6495 383.9343 256.3681 390.0624 238.9866 399.6891 222.9868 412.1903 209.3936 380.0569 193.0372 335.5337 183.0986 318.5311 181.0262 215.7354 167.433 155.034 106.8876 156.059 19.0444 157.151-79.8962 269.395-146.3022 373.4832-146.3022 421.817-146.2577 464.045-132.6645 495.6659-106.9488 576.2891-41.0776 569.8268 105.5951 561.1806 176.146A133.7703 133.7703 0 0 1 602.7624 202.7307C617.4252 171.6892 625.8485 128.4139 627.9878 106.843 636.3442 3.1783 694.2378-60.3532 786.9166-63.1832 843.8743-63.1832 897.1552-24.8103 929.3109 39.4342 962.6476 105.974 973.6336 203.3101 923.0714 270.8304ZM879.5286 64.3699C857.0218 19.3564 822.4149-7.4734 784.6214-7.4734H784.5768C704.7336-4.9776 686.9733 68.0245 683.4079 112.102 682.9399 116.5588 671.9539 223.2096 623.4641 269.6493A27.7212 27.7212 0 0 1 579.8768 262.8973 78.8182 78.8182 0 0 0 525.1921 223.3656 27.8103 27.8103 0 0 1 502.8636 191.5665C508.1226 158.9651 530.8522-6.3815 460.5242-63.8072 439.2653-81.0772 408.3798-90.5924 373.4832-90.637 297.5396-90.637 212.4373-45.3115 211.702 19.6461 210.7438 98.8431 282.8099 120.1465 326.4196 125.9181 327.4001 126.0295 430.842 139.9792 478.1285 188.5804A27.8103 27.8103 0 0 1 471.9781 232.1232 79.2639 79.2639 0 0 0 432.6693 290.9527 27.8772 27.8772 0 0 1 405.0595 315.3982 26.295 26.295 0 0 1 400.4467 315.0194C381.8619 311.8996 344.5141 306.7075 303.2666 306.7075 251.6125 306.7075 183.134 314.9079 150.087 354.1053 116.5942 393.9936 112.5163 467.9761 140.3489 529.9923 150.1984 551.8974 178.6104 602.9275 233.3619 604.4651 309.8849 604.4651 331.5226 533.8474 337.6507 491.2406 337.8289 490.1932 353.9625 385.5034 403.6556 339.7545 409.5831 334.2504 418.0065 331.5986 425.7167 332.6236 433.828 333.5596 441.048 338.0164 445.5494 344.7015A78.7959 78.7959 0 0 0 502.4179 378.8851 27.8103 27.8103 0 0 1 526.7074 411.9321C518.1281 455.408 495.0197 601.6351 557.5929 658.3253 580.1442 678.7597 614.2163 690.0131 653.6366 690.0131 725.9924 690.0131 806.5488 651.1053 810.5153 588.2647 815.5738 509.0677 744.7332 483.9983 701.4133 475.9538 700.3882 475.7978 596.6789 455.6309 552.6904 404.7121A27.8549 27.8549 0 0 1 557.3255 364.0885 77.7709 77.7709 0 0 0 588.4115 313.1698C590.7959 298.2396 604.9908 287.989 619.5645 289.95 630.7064 291.3761 660.5446 294.7856 696.8896 294.7856 786.4264 294.7856 850.9383 274.4626 878.5035 237.5605 909.4336 196.1347 909.857 124.9376 879.5286 64.3699ZM511.8663 334.9857A35.2086 35.2086 0 1 1 511.8663 264.5463 35.2086 35.2086 0 0 1 511.8663 334.9635Z"  horiz-adv-x="1024" vert-adv-y="1024"  />

      
      <glyph glyph-name="wood" unicode="&#xE1C1;" d="M929.6805-46.9516H827.1174V-10.2198C835.8106-12.4646 844.7078-13.7298 853.7887-13.7298H853.8907A103.0121 103.0121 0 0 1 927.9256 17.533 103.1753 103.1753 0 0 1 957.7191 92.2413 104.6038 104.6038 0 0 1 896.173 185.1521V190.0293A103.2978 103.2978 0 0 1 865.2164 260.7583 103.4406 103.4406 0 0 1 794.0997 290.8375H792.2631C775.244 290.8375 758.7352 286.6337 744.1037 279.0017A212.3706 212.3706 0 0 1 686.0676 363.5051 154.9467 154.9467 0 0 1 699.842 427.6836C699.842 509.7382 636.0512 577.1409 555.4659 582.8955 547.6502 653.2368 487.7775 708.1303 415.3956 708.1303 342.1362 708.1303 281.7737 651.9716 275.0191 580.3651 203.6168 566.2846 149.6007 503.1877 149.6007 427.6836 149.6007 411.7665 152.0495 395.8494 156.8246 380.7078A213.2685 213.2685 0 0 1 63.0567 203.8853C63.0567 146.8287 85.2386 93.2004 125.5618 52.8771A212.1257 212.1257 0 0 1 276.57-9.6485C308.4246-9.6485 345.2584-9.7505 379.2556 2.4526L379.0516-46.972H116.9707C99.6864-46.972 85.7283-60.8484 85.7283-78.1327V-78.2143C85.7283-95.5191 99.6864-109.5792 116.9707-109.5792H929.6805C946.9649-109.5792 960.9433-95.417 960.9433-78.2143V-78.3164C960.9433-60.93 946.9853-46.972 929.6805-46.972ZM758.6535 211.3337A41.8334 41.8334 0 0 0 793.0181 228.4139 42.017 42.017 0 0 0 833.7699 188.1723C833.8515 186.4173 833.7699 184.6624 833.5659 182.989A51.4448 51.4448 0 0 1 867.5631 129.3607 41.8334 41.8334 0 0 0 895.316 91.0781 41.2824 41.2824 0 0 0 883.3782 61.2846C875.4808 53.1832 865.0123 48.7754 853.8907 48.7754H853.7887A41.3028 41.3028 0 0 0 827.3215 58.2644C827.2194 58.3461 827.2194 58.3461 827.1174 58.3461V99.5672A31.222 31.222 0 0 1 795.8546 130.83 31.222 31.222 0 0 1 764.6122 99.5672V64.0191A53.363 53.363 0 0 1 756.2048 58.2644C750.9195 53.8566 742.1243 48.7754 729.7375 48.7754H729.6355A40.711 40.711 0 0 0 701.801 59.7133 211.9625 211.9625 0 0 1 757.8577 203.9057C757.8577 205.8443 757.8577 207.8034 757.7557 209.8644 757.9597 210.3542 758.3679 210.8235 758.6535 211.3337ZM276.8761 52.9791C193.5563 52.9791 125.8679 120.7696 125.8679 203.9873 125.8679 232.7197 133.9693 260.7583 149.315 284.8788A151.5796 151.5796 0 0 0 210.3713 339.6703L239.7567 354.1385 223.9416 382.8504A93.1966 93.1966 0 0 0 305.5065 520.8801L342.9116 520.3904 337.9324 556.3262A78.5039 78.5039 0 0 0 415.5996 645.6047 78.5039 78.5039 0 0 0 493.1444 555.1631L486.6143 512.5747 529.1007 519.6149A93.1966 93.1966 0 0 0 637.5205 427.7856C637.5205 408.2566 631.5618 389.5846 620.2362 373.7696L601.4622 347.588 628.2355 329.6303A150.9674 150.9674 0 0 0 695.3525 204.0894C695.3525 120.7696 627.5621 53.0812 544.3443 53.0812 498.8174 53.0812 465.7792 54.5504 442.4546 72.5286L442.5566 116.1985 539.8345 229.4955A31.2424 31.2424 0 0 1 492.471 270.2269L442.7403 212.2928 443.1484 315.9579 525.4887 409.2157A31.324 31.324 0 0 1 522.7338 453.3754 31.324 31.324 0 0 1 478.5945 450.6409L443.5361 410.889 443.7198 467.8232A31.1607 31.1607 0 0 1 412.5591 499.188H412.457C395.2747 499.188 381.2963 485.2299 381.1942 468.0272L380.6229 345.731 352.87 360.9747A31.324 31.324 0 0 1 310.3836 348.6695 31.324 31.324 0 0 1 322.6888 306.1628L380.3168 274.4306 379.7454 73.1C356.1963 54.53 322.9949 52.9791 276.8965 52.9791ZM441.9648 2.2894C475.758-9.7301 512.3877-9.628 544.1403-9.628 583.0147-9.628 620.4198 0.7181 652.9478 20.1655 658.7228 13.819 665.2529 8.2481 672.4972 3.4525 689.3938-7.7711 709.1269-13.7298 729.3498-13.7298H729.6355C741.5529-13.7298 753.3683-11.6891 764.5102-7.669V-46.9516H441.8832L441.9648 2.2894Z"  horiz-adv-x="1024" vert-adv-y="1024"  />

      
      <glyph glyph-name="arrow-lr" unicode="&#xE1C2;" d="M66.2116 319.1079H811.4178V300H66.2116V319.1079ZM811.4178 433.755L964.2806 303.8216 811.4178 173.8882V433.755Z"  horiz-adv-x="1024" vert-adv-y="1024"  />

      
      <glyph glyph-name="building" unicode="&#xE1C3;" d="M572.9524-101.0159H349.4603V617.8159A60.7619 60.7619 0 0 0 404.3492 678.4698L715.1746 709.5492V122.4762A20.3175 20.3175 0 0 1 755.8095 122.4762V549.1429H877.7143V122.4762A20.3175 20.3175 0 0 1 918.3492 122.4762V549.1429A40.6794 40.6794 0 0 1 877.7143 589.7778H755.8095V732A20.3175 20.3175 0 0 1 733.473 752.2159L400.3048 718.9016A101.5873 101.5873 0 0 1 308.8254 617.8159V-101.0159H186.9206V-15.7778C197.2762-11.4667 206.1016-3.7143 212.673 7.0349 222.6857 23.4286 227.5556 46.2286 227.5556 76.7619 227.5556 106.4762 222.7937 140.254 214.8127 167.0857 210.419 181.8603 205.2889 193.8857 199.4857 202.8254 188.1397 220.381 175.3397 224.0635 166.6032 224.0635S145.0667 220.381 133.7206 202.8254C127.9429 193.8857 122.7873 181.873 118.3937 167.0857 110.4127 140.254 105.6508 106.4762 105.6508 76.7619 105.6508 46.2286 110.5206 23.4286 120.5333 7.0349 127.1048-3.7206 135.9302-11.4667 146.2857-15.7778V-101.0159H85.3333A20.3175 20.3175 0 0 1 85.3333-141.6508H572.9524A20.3175 20.3175 0 0 1 572.9524-101.0159ZM155.0159 147.0222C159.1175 163.2127 163.4159 173.1619 166.6032 178.7683 169.7778 173.1746 174.0889 163.2254 178.1905 147.0222A299.3016 299.3016 0 0 0 186.9206 76.7619C186.9206 63.6571 185.454 20.8889 166.6032 20.8889S146.2857 63.6571 146.2857 76.7619A299.3016 299.3016 0 0 0 155.0159 147.0222ZM471.3651 508.5079H430.7302V589.7778H471.3651ZM552.6349 508.5079H512V589.7778H552.6349ZM633.9048 508.5079H593.2698V589.7778H633.9048ZM471.3651 386.6032H430.7302V467.873H471.3651ZM552.6349 386.6032H512V467.873H552.6349ZM633.9048 386.6032H593.2698V467.873H633.9048ZM471.3651 264.6984H430.7302V345.9683H471.3651ZM552.6349 264.6984H512V345.9683H552.6349ZM593.2698 345.9683H633.9048V264.6984H593.2698ZM471.3651 142.7937H430.7302V224.0635H471.3651ZM552.6349 142.7937H512V224.0635H552.6349ZM633.9048 142.7937H593.2698V224.0635H633.9048ZM430.7302 102.1587H471.3651V20.8889H430.7302ZM512 102.1587H552.6349V20.8889H512ZM837.0794 386.6032H796.4444V467.873H837.0794ZM837.0794 264.6984H796.4444V345.9683H837.0794ZM796.4444 224.0635H837.0794V142.7937H796.4444ZM939.4159-7.4921A81.4413 81.4413 0 0 1 900.3429 17.6825 101.5873 101.5873 0 0 1 735.4921 20.8571H715.1746A81.2698 81.2698 0 0 1 715.1746-141.6825H877.7143A81.2698 81.2698 0 0 1 939.4159-7.5238ZM877.7143-101.0159H715.1746A40.6349 40.6349 0 0 0 715.1746-19.746H746.3683A20.3175 20.3175 0 0 1 763.9556-9.5873 60.9524 60.9524 0 0 0 869.9111-10.2222 20.3175 20.3175 0 0 1 884.3365-20.3048 40.6349 40.6349 0 0 0 877.7143-101.0159Z"  horiz-adv-x="1024" vert-adv-y="1024"  />

      
      <glyph glyph-name="traffic" unicode="&#xE1C4;" d="M990.6773 290.5707C990.6773 347.1467 945.5275 393.4059 889.2843 395.0699V592.3093C889.2843 656.5397 837.0347 708.7893 772.8043 708.7893H251.1957C186.9653 708.7893 134.7157 656.5397 134.7157 592.3093V395.0699C107.9808 394.2933 82.9099 383.5328 63.9403 364.4523 44.1941 344.7061 33.3227 318.4149 33.3227 290.4597 33.3227 233.8837 78.4725 187.6245 134.7157 185.9605V141.1435C134.7157 92 165.3333 49.8453 208.3755 32.7616V-39.8997C208.3755-77.9499 239.3259-108.9003 277.376-108.9003H315.648C353.6981-108.9003 384.6485-77.9499 384.6485-39.8997V24.5525H639.0187V-39.8997C639.0187-77.9499 669.9691-108.9003 708.0192-108.9003H746.2912C784.3413-108.9003 815.2917-77.9499 815.2917-39.8997V32.7616C858.4448 49.8453 888.9515 92 888.9515 141.1435V185.9605C915.6864 186.7371 940.7573 197.4976 959.7269 216.5781 979.8059 236.3243 990.6773 262.6155 990.6773 290.5707ZM190.1824 592.3093C190.1824 625.9221 217.5829 653.3227 251.1957 653.3227H772.8043C806.4171 653.3227 833.8176 625.9221 833.8176 592.3093V353.5808H190.1824V592.3093ZM88.7893 290.5707C88.7893 303.6608 93.8923 315.9744 103.2107 325.2928 111.7525 333.8347 122.8459 338.8267 134.7157 339.6032V241.6491C109.0901 243.2021 88.7893 264.5013 88.7893 290.5707ZM329.2928-39.7888C329.2928-47.3323 323.1915-53.3227 315.7589-53.3227H277.4869C269.9435-53.3227 263.9531-47.2213 263.9531-39.7888V24.6635H329.4037V-39.7888ZM746.5131-53.3227H708.2411C700.6976-53.3227 694.7072-47.2213 694.7072-39.7888V24.6635H760.1579V-39.7888C760.1579-47.2213 754.0565-53.3227 746.5131-53.3227ZM772.8043 80.2411H251.1957C217.5829 80.2411 190.1824 107.6416 190.1824 141.2544V146.912H307.6608C322.9696 146.912 335.3941 159.3365 335.3941 174.6453S322.9696 202.3787 307.6608 202.3787H190.1824V298.1141H833.8176V202.3787H716.3392C701.0304 202.3787 688.6059 189.9541 688.6059 174.6453S701.0304 146.912 716.3392 146.912H833.8176V141.2544C833.8176 107.5307 806.4171 80.2411 772.8043 80.2411ZM920.7893 255.8485C912.2475 247.3067 901.1541 242.3147 889.2843 241.5381V319.968C889.728 321.8539 889.9499 323.8507 889.9499 325.8475S889.728 329.8411 889.2843 331.7269V339.6032C914.9099 337.9392 935.2107 316.64 935.2107 290.5707 935.2107 277.4805 930.1077 265.056 920.7893 255.8485Z"  horiz-adv-x="1024" vert-adv-y="1024"  />

      
      <glyph glyph-name="hydropower" unicode="&#xE1C5;" d="M116.4529 235.2085C116.7224 293.4397 142.3308 352.173 177.9472 409.4666L177.9472 409.4666C213.7542 466.6838 260.5288 522.4173 307.0558 571.7729L307.0558 571.7729C400.1194 670.3612 492.2815 743.2226 492.9136 743.7669L492.9136 743.7669C503.4194 752.0955 518.2059 752.0587 528.7187 743.7669L528.7187 743.7669C529.7678 742.6019 736.3634 580.2929 843.678 409.4674L843.678 409.4674C879.2901 352.1739 904.8941 293.4397 905.2101 235.2094L905.2101 235.2094C905.0916 21.8803 728.1164-149.6089 510.8122-149.9908L510.8122-149.9908 510.8122-121.1605 510.8122-92.282C697.324-92.2381 847.1335 54.9245 847.4846 235.2094L847.4846 235.2094C848.8498 305.8936 783.5646 408.493 705.9977 495.5237L705.9977 495.5237C630.9372 580.9084 546.8211 653.8725 510.8412 683.8633L510.8412 683.8633C506.5158 680.2578 501.4915 676.0105 495.8335 671.1777L495.8335 671.1777C475.273 653.6618 446.75 628.5161 415.0666 598.3953L415.0666 598.3953C351.7769 538.18 275.9482 457.4597 226.8762 378.8726L226.8762 378.8726C193.9417 326.5655 173.9019 275.3725 174.1714 235.2085L174.1714 235.2085C174.4874 54.9236 324.3364-92.239 510.8131-92.2829L510.8131-92.2829 510.8131-121.1614 510.8131-149.9917C293.5861-149.6098 116.5644 21.875 116.4529 235.2085L116.4529 235.2085ZM460.4971 15.8746C453.2833 19.2501 449.3284 27.1073 450.884 34.925L450.884 34.925 481.0882 186.0601 330.4536 186.0601C323.7684 186.0601 317.7047 189.8702 314.8313 195.8969L314.8313 195.8969C311.9448 201.915 312.806 209.0699 317.0059 214.2846L317.0059 214.2846 540.3281 489.1545C545.3497 495.335 553.9795 497.2769 561.1739 493.8996L561.1739 493.8996C568.3595 490.517 572.3276 482.6229 570.7693 474.8518L570.7693 474.8518 540.5212 323.7474 691.2349 323.7474C697.885 323.7474 703.9908 319.8978 706.8133 313.8737L706.8133 313.8737C709.7016 307.8495 708.8456 300.6964 704.6492 295.5255L704.6492 295.5255 481.2814 20.6152C477.9102 16.4671 472.9413 14.2241 467.8433 14.2241L467.8433 14.2241C465.365 14.2241 462.8428 14.7684 460.4971 15.8746L460.4971 15.8746ZM366.8013 220.6573L502.2369 220.6573C507.4446 220.6573 512.3433 218.3264 515.6117 214.3232L515.6117 214.3232C518.917 210.32 520.2338 205.0701 519.2155 199.9344L519.2155 199.9344 498.5365 96.7635 654.8117 289.1107 519.4218 289.1107C514.1983 289.1107 509.3154 291.4459 506.0426 295.4492L506.0426 295.4492C502.7417 299.4919 501.4222 304.7347 502.4256 309.8292L502.4256 309.8292 523.0519 412.9431 366.8013 220.6573 366.8013 220.6573Z"  horiz-adv-x="1024" vert-adv-y="1024"  />

      
      <glyph glyph-name="doc-status" unicode="&#xE1C6;" d="M672.8-78.7647H159.44C154.52-78.7647 150.44-74.8047 150.44-70.0047V677.4753C150.44 682.2753 154.52 686.2353 159.44 686.2353H847.16C852.08 686.2353 856.16 682.2753 856.16 677.4753V390.1953C856.16 373.6353 869.6 360.1953 886.16 360.1953S916.16 373.6353 916.16 390.1953V677.4753C916.16 715.3953 885.2 746.2353 847.16 746.2353H159.44C121.4 746.2353 90.44 715.3953 90.44 677.4753V-70.0047C90.44-107.9247 121.4-138.7647 159.44-138.7647H672.8C689.36-138.7647 702.8-125.3247 702.8-108.7647S689.36-78.7647 672.8-78.7647ZM783.2 501.4353C783.2 517.9953 769.76 531.4353 753.2 531.4353H253.4C236.84 531.4353 223.4 517.9953 223.4 501.4353S236.84 471.4353 253.4 471.4353H753.2C769.76 471.4353 783.2 484.8753 783.2 501.4353ZM688.16 303.6753C688.16 320.2353 674.72 333.6753 658.16 333.6753H253.4C236.84 333.6753 223.4 320.2353 223.4 303.6753S236.84 273.6753 253.4 273.6753H658.16C674.72 273.6753 688.16 287.1153 688.16 303.6753ZM253.4 135.9153C236.84 135.9153 223.4 122.4753 223.4 105.9153S236.84 75.9153 253.4 75.9153H599.72C616.28 75.9153 629.72 89.3553 629.72 105.9153S616.28 135.9153 599.72 135.9153H253.4ZM935.48 270.6753C907.88 294.9153 871.64 308.2353 833.48 308.2353 797 308.2353 762.56 295.1553 736.64 271.3953 711.68 248.5953 697.4 218.5953 697.4 189.1953 697.4 130.7553 731.72 105.0753 735.68 102.4353L770 151.6353S770.36 151.3953 770.84 151.0353C770.24 151.5153 757.4 162.1953 757.4 189.1953 757.4 201.4353 764.96 215.9553 777.08 227.1153 791.96 240.6753 812 248.2353 833.48 248.2353 882.08 248.2353 918.44 213.5553 918.44 182.4753 918.44 170.1153 912.44 148.7553 899.24 130.9953 884.6 111.1953 865.16 101.1153 841.76 101.1153H811.76L811.88-24.1647C811.88-40.7247 825.32-54.1647 841.88-54.1647S871.88-40.7247 871.88-24.1647L871.76 44.4753C901.64 51.4353 927.92 68.8353 947.48 95.2353 970.28 126.0753 978.44 160.5153 978.44 182.4753 978.44 214.5153 962.72 246.6753 935.48 270.6753ZM837.92-82.0047C821.36-82.0047 807.8-95.4447 807.8-112.1247S821.24-142.2447 837.92-142.2447C854.48-142.2447 868.04-128.8047 868.04-112.1247S854.48-82.0047 837.92-82.0047Z"  horiz-adv-x="1024" vert-adv-y="1024"  />

      
      <glyph glyph-name="letterbox" unicode="&#xE1C7;" d="M845.5377 427.2419V618.1508A128.4857 128.4857 0 0 1 717.2823 746.4062H306.7637A128.5318 128.5318 0 0 1 178.4623 618.1508V427.2419A128.3936 128.3936 0 0 1 65.5938 300V-18.1508A128.5318 128.5318 0 0 1 193.8492-146.4523H830.1508A128.4857 128.4857 0 0 1 958.4523-18.1508V300A128.3936 128.3936 0 0 1 845.5838 427.2419ZM907.1317 302.2574L845.5377 265.9091V375.4145A77.073 77.073 0 0 0 907.1317 302.2574ZM306.7637 695.1317H717.2363A76.9348 76.9348 0 0 0 794.2172 618.1508V235.5037L529.3219 79.3307A34.874 34.874 0 0 0 494.2635 79.3307L229.7828 231.3576V618.1969A76.9348 76.9348 0 0 0 306.7177 695.1317ZM178.4623 375.4145V260.9798L116.8683 296.4988V300A77.1652 77.1652 0 0 0 178.4623 375.4145ZM830.1508-95.1317H193.8492A76.9348 76.9348 0 0 0 116.9144-18.1508V237.3465L468.6032 34.4597A85.7339 85.7339 0 0 1 555.4428 34.9665L907.1317 242.6905V-18.0587A76.9809 76.9809 0 0 0 830.1508-95.0856ZM460.6794 520.6693H665.9618A25.6603 25.6603 0 0 1 665.9618 571.9438H460.6794A25.6603 25.6603 0 0 1 460.6794 520.6693ZM358.0382 397.4815H665.9157A25.6603 25.6603 0 0 1 665.9157 448.8021H358.0843A25.6603 25.6603 0 0 1 358.0843 397.4815ZM358.0382 274.3397H665.9157A25.6603 25.6603 0 1 1 665.9157 325.6603H358.0843A25.6603 25.6603 0 0 1 358.0843 274.3397Z"  horiz-adv-x="1024" vert-adv-y="1024"  />

      
      <glyph glyph-name="develop" unicode="&#xE1C8;" d="M845.056 57.568H174.336C116.48 57.568 69.376 104.672 69.376 162.528V630.752C69.376 688.608 116.48 735.712 174.336 735.712H845.312C903.168 735.712 950.272 688.608 950.272 630.752V162.528C950.016 104.672 902.912 57.568 845.056 57.568ZM174.336 674.272C150.272 674.272 130.816 654.816 130.816 630.752V162.528C130.816 138.464 150.272 119.008 174.336 119.008H845.312C869.376 119.008 888.832 138.464 888.832 162.528V630.752C888.832 654.816 869.376 674.272 845.312 674.272H174.336ZM815.616-133.92H205.056C188.16-133.92 174.336-120.096 174.336-103.2S188.16-72.48 205.056-72.48H815.616C832.512-72.48 846.336-86.304 846.336-103.2S832.512-133.92 815.616-133.92ZM281.088 277.472C271.872 277.472 262.912 281.568 257.024 289.248 246.528 302.56 248.832 322.016 262.144 332.512L413.44 451.552C424.448 460.256 439.808 460.256 450.816 452.064L553.984 374.496 701.952 516.832C714.24 528.608 733.696 528.096 745.472 516.064 757.248 503.776 756.736 484.32 744.704 472.544L577.792 312.032C567.04 301.536 550.144 300.512 538.112 309.728L432.896 388.576 300.032 284.128C294.4 279.776 287.744 277.472 281.088 277.472ZM736.768 323.04C719.872 323.04 706.048 336.864 706.048 353.76V479.712H579.584C562.688 479.712 548.864 493.536 548.864 510.432S562.688 541.152 579.584 541.152H736.768C753.664 541.152 767.488 527.328 767.488 510.432V353.76C767.488 336.864 753.92 323.04 736.768 323.04Z"  horiz-adv-x="1024" vert-adv-y="1024"  />

      
      <glyph glyph-name="letter-lock" unicode="&#xE1C9;" d="M1162.0705 753.3612H255.7175C167.0525 753.3612 95.0122 681.3209 95.0122 592.656V20.6438C95.0122-67.4055 167.0525-139.4457 255.7175-139.4457H824.651C780.7496-99.4849 766.1568-55.7066 766.1568-55.7066H255.7175C228.4037-53.6624 216.2739-46.3783 197.1124-28.6145 184.1021-11.8606 179.952-0.9991 178.7514 21.2595V504.6067L673.7974 272.4769C695.348 260.7781 700.6432 260.735 720.5928 264.4724L1239.0366 507.0696V430.1035C1286.848 427.9793 1305.7755 411.2561 1323.3915 402.3957V592.656C1322.7758 681.3209 1250.7355 753.3612 1162.0705 753.3612ZM255.7175 669.6221H1162.6862C1202.7086 669.6221 1235.958 638.8356 1239.0366 599.429L706.4311 349.443 178.7514 596.9661C181.2143 637.6042 214.4636 669.6221 255.7175 669.6221ZM1305.8432 151.4862H1243.9624V234.6096C1243.9624 303.7067 1188.787 359.2947 1120.2009 359.2947 1051.6149 359.2947 996.4394 303.7067 996.4394 234.6096V151.4862H934.5587C923.2169 151.4862 913.9317 142.1333 913.9317 130.7053V-118.6649C913.9317-130.0928 923.2169-139.4457 934.5587-139.4457H1305.8432C1317.1849-139.4457 1326.4701-130.0928 1326.4701-118.6649V130.7053C1326.4701 142.1333 1317.1849 151.4862 1305.8432 151.4862ZM1120.2009-35.5415C1097.5113-35.5415 1078.9471-16.8418 1078.9471 6.0202S1097.5113 47.5819 1120.2009 47.5819 1161.4548 28.8822 1161.4548 6.0202 1142.8905-35.5415 1120.2009-35.5415ZM1202.7086 151.4862H1037.6933V234.6096C1037.6933 280.3275 1074.8217 317.733 1120.2009 317.733S1202.7086 280.3275 1202.7086 234.6096V151.4862Z"  horiz-adv-x="1412" vert-adv-y="1024"  />

      
      <glyph glyph-name="lecturer" unicode="&#xE1CA;" d="M759.1643 376.8401A70.7373 70.7373 0 0 1 700.286 431.4188L598.0637 446.4678 547.438 330.1674 540.8497 387.4507A3.4675 3.4675 0 0 1 537.3822 390.6408H508.3938A3.5369 3.5369 0 0 1 504.8569 387.4507L498.9622 328.711 447.643 446.4678 345.282 431.4188A70.8066 70.8066 0 0 1 286.4729 376.8401L261.2988 264.2153H784.5465L759.1643 376.8401ZM487.45 442.2374C487.45 431.6268 496.2575 417.4793 501.5281 412.1394 506.8681 406.7994 515.7449 406.7994 522.8186 406.7994 529.9617 406.7994 538.8386 406.7994 544.1785 412.1394 549.4491 417.4793 558.2566 431.6268 558.2566 442.2374 558.326 454.6511 536.6887 456.4542 522.888 456.4542S487.3807 454.6511 487.45 442.2374ZM415.0483 627.3332A132.8751 107.7703 90 1 1 630.589 627.3332 132.8751 107.7703 90 1 1 415.0483 627.3332ZM61.7781 229.5401V131.3402H264.3502V-160.139H759.5804V131.3402H962.2219V229.5401H61.7781ZM625.3183 28.0083H573.7911V-84.2698H450.2089V28.0083H398.751V110.7431H625.3183V28.0083Z"  horiz-adv-x="1024" vert-adv-y="1024"  />

      
      <glyph glyph-name="corporation" unicode="&#xE1CB;" d="M578.3 580.9C571.1 586.3 558.6 588 550.5 585.4L142.9 426.7C134.9 423.1 127.7 414.1 127.7 405.2V-83.4H96.3C78.4-83.4 64.1-97.8 64.1-115.7S78.4-148 96.3-148H695.7C700-148 704.1-146.3 707.1-143.3S711.8-136.2 711.8-131.9V460.8C711.8 469.8 706.4 481.4 699.3 486.8L578.3 580.9ZM491.4 102.1C491.4 93.1 484.2 84.2 476.2 82.4L246.9 26.8C238 25 231.7 30.4 231.7 39.3V62.6C231.7 71.6 238.9 80.6 246.9 82.3L476.2 138C485.2 139.8 491.4 134.4 491.4 125.5V102.1ZM491.4 212.4C491.4 203.5 484.2 194.5 476.2 192.7L246.9 137.1C238 135.3 231.7 140.7 231.7 149.7V173C231.7 182 238.9 190.9 246.9 192.7L476.2 248.3C485.2 250.1 491.4 244.7 491.4 235.8V212.4ZM491.4 323.6C491.4 314.6 484.2 305.7 476.2 303.9L246.9 248.3C238 246.5 231.7 251.9 231.7 260.9V284.2C231.7 293.2 238.9 302.1 246.9 303.9L476.2 358.6C485.2 360.4 491.4 355 491.4 346.1V323.6ZM927.7-85.2C925-85.2 922.3-85.2 919.6-86.1 917.8-85.2 916-85.2 913.3-85.2H855.1C846.2-85.2 839-78 839-70V627.5C839 636.5 833.6 647.2 826.4 652.6L703.7 742.3C696.5 747.7 684 749.5 675.9 746.8L301.5 645.5C293.4 642.8 286.3 633.8 286.3 624.9V551.4C286.3 534.4 300.7 520 318.6 520S350.8 534.3 350.8 551.4V583.7C352.6 590.9 358 598.9 366 600.7L664.3 677.8C672.4 680.5 684.9 678.7 692.1 673.3L762.9 622.2C770.1 616.8 775.5 606.1 775.5 597.1V-131.8C775.5-140.8 782.7-147.1 791.6-147.1H914.3C916.1-147.1 917.9-147.1 919.7-146.2 922.4-147.1 925.1-147.1 927.8-147.1 945.7-147.1 960-132.7 960-115.7 959.9-99.6 945.6-85.2 927.7-85.2Z"  horiz-adv-x="1024" vert-adv-y="1024"  />

      
      <glyph glyph-name="honor" unicode="&#xE1CC;" d="M656.2819-19.5792C654.4469-12.9579 650.5344-7.3611 645.3658-3.4136 640.2015 0.5251 633.7834 2.8101 626.9392 2.8101L594.6081 2.8101 562.288 2.8101 562.288 58.0111 562.288 113.2033C554.0916 111.8249 545.7969 110.761 537.4083 110.0314 529.0197 109.3105 520.5437 108.9304 511.9934 108.9304 503.4257 108.9304 494.941 109.3105 486.5502 110.0314 478.1616 110.761 469.8604 111.8249 461.6684 113.2033L461.6684 58.0111 461.6684 2.8101 429.3635 2.8101 397.0608 2.8101C390.2166 2.8101 383.7963 0.5251 378.6255-3.4136 373.4547-7.3633 369.5444-12.9579 367.7181-19.5792L356.2406-60.9717 344.7609-102.373C343.4982-106.978 343.3322-111.7403 344.206-116.3212 345.0733-120.8804 346.9847-125.2516 349.8552-129.0527 352.7497-132.8625 356.435-135.8794 360.5878-137.9481 364.7362-140.0278 369.3609-141.1506 374.1254-141.1506L511.9913-141.1506 649.8615-141.1506C649.9052-141.1506 649.9467-141.1506 649.9817-141.1506 650.0254-141.1506 650.0712-141.1506 650.1193-141.1506 658.5298-141.1506 666.145-137.7275 671.6566-132.1875 677.1726-126.6563 680.5739-118.9995 680.5739-110.5563 680.5739-108.4591 680.3707-106.4078 679.9688-104.4155 679.5712-102.4276 678.9857-100.514 678.2211-98.7008L667.2526-59.1411 656.2819-19.5792 656.2819-19.5792 656.2819-19.5792ZM821.5768 636.4405C817.3606 637.5699 813.1073 638.4001 808.8541 638.9462 804.5964 639.5011 800.3322 639.7698 796.0789 639.7698 794.1128 639.7698 792.1467 639.7042 790.1872 639.5841 788.2299 639.4618 786.2703 639.287 784.3152 639.0751L784.3152 679.8691 784.3152 720.6696C784.3152 728.6147 781.1061 735.8193 775.9222 741.0338 770.7405 746.2396 763.5774 749.4661 755.6628 749.4661L512.0131 749.4661 268.3612 749.4661C260.4422 749.4661 253.2704 746.2396 248.0756 741.0338 242.883 735.8172 239.6739 728.6126 239.6739 720.6696L239.6739 679.8691 239.6739 639.0773C237.7144 639.2914 235.757 639.4661 233.8019 639.5863 231.8445 639.7064 229.8872 639.761 227.9298 639.761 223.6656 639.761 219.4036 639.5033 215.1503 638.9484 210.8905 638.4023 206.6459 637.5699 202.4298 636.4427 168.9889 627.4971 143.3731 601.8834 128.9705 567.6845 114.5679 533.4966 111.3915 490.7322 122.8429 447.4981 132.8721 409.7035 152.4236 377.8093 176.8358 355.3523 201.2458 332.8996 230.5229 319.8995 260.0119 319.8995 261.5039 319.8995 262.9982 319.9716 264.4967 320.083 265.991 320.1944 267.4939 320.3429 268.9925 320.4915 270.0848 318.1147 271.2076 315.7663 272.3632 313.4354 273.5189 311.1155 274.7073 308.8108 275.9197 306.5301 276.1447 306.1042 276.3719 305.676 276.5947 305.2522 276.8175 304.8371 277.0425 304.4199 277.2697 304.0223 279.0545 300.7193 280.8938 297.4556 282.79 294.2443 284.6906 291.0352 286.6414 287.872 288.6533 284.7678 288.8761 284.4139 289.1011 284.0731 289.3283 283.7214 289.5555 283.3675 289.7827 283.018 290.0165 282.6663 292.1245 279.466 294.2697 276.3137 296.4761 273.2051 298.6738 270.0899 300.926 267.0185 303.2416 264.0038 303.3006 263.9208 303.3661 263.8553 303.4295 263.7657 303.4994 263.6914 303.5671 263.6084 303.6327 263.5342 308.4932 257.2449 313.6007 251.1894 318.9419 245.3545 324.2721 239.5371 329.8361 233.9512 335.5924 228.6144 335.7082 228.5139 335.8043 228.42 335.9026 228.3195 335.9965 228.2168 336.0883 228.1251 336.1844 228.042 339.033 225.4162 341.9363 222.8712 344.881 220.3852 347.8214 217.8861 350.8098 215.4744 353.8332 213.1064 353.9862 212.995 354.1281 212.8836 354.268 212.7853 354.4056 212.6804 354.5454 212.569 354.6852 212.4598 367.2026 202.8063 380.5042 194.2692 394.4721 186.9925 408.4378 179.7071 423.0567 173.6756 438.2065 169.0334 438.2567 169.0138 438.3026 168.9875 438.3485 168.9788 438.3943 168.9591 438.4446 168.9504 438.497 168.9329 442.3003 167.7882 446.1254 166.7134 449.9767 165.7326 453.8324 164.743 457.7122 163.8473 461.6247 163.0347 461.6334 163.0347 461.6378 163.0347 461.6378 163.0347 461.6465 163.0347 461.6509 163.0347 461.6596 163.0347L461.6596 163.0347 461.6596 163.0347C465.7141 162.2089 469.7992 161.4793 473.9083 160.8502 478.013 160.2232 482.1505 159.6858 486.3099 159.2664 486.4016 159.238 486.5043 159.238 486.6048 159.2314 486.7009 159.2205 486.7927 159.2118 486.8822 159.2118 491.0154 158.7967 495.1813 158.4734 499.3668 158.2418 503.5546 158.0277 507.7686 157.9098 511.9869 157.9098 516.2161 157.9098 520.4105 158.0299 524.5829 158.2418 528.751 158.4734 532.8951 158.7967 537.0195 159.2118 537.1221 159.2118 537.227 159.2205 537.334 159.2314 537.4367 159.238 537.5481 159.238 537.6573 159.2664 541.8036 159.6836 545.928 160.2232 550.0152 160.8502 554.1134 161.4793 558.1723 162.2089 562.2093 163.0347 562.2268 163.0347 562.2421 163.0347 562.253 163.0347 562.2617 163.0347 562.2661 163.0347 562.2661 163.0347 562.2901 163.0347 562.2989 163.0347 562.312 163.0347 562.312 163.0347 562.3295 163.0347 562.3491 163.0347 566.2551 163.8473 570.1348 164.7343 573.9818 165.7239 577.8265 166.7025 581.6451 167.7686 585.4243 168.9242 585.4702 168.9417 585.527 168.9526 585.5816 168.9701 585.6362 168.9897 585.704 168.9985 585.7739 169.0159 600.9214 173.6581 615.536 179.6983 629.4908 186.975 643.4477 194.2539 656.7515 202.791 669.2755 212.4445 669.4131 212.545 669.5551 212.6564 669.6905 212.7656 669.8303 212.877 669.9636 212.9884 670.1034 213.0911 673.153 215.4482 676.1502 217.8796 679.095 220.3678S684.9408 225.4184 687.7807 228.0246C687.8702 228.1185 687.9685 228.1993 688.0625 228.302 688.1608 228.3937 688.2547 228.4877 688.3486 228.5882 694.1289 233.925 699.6951 239.5108 705.0428 245.3457 710.3862 251.1828 715.5068 257.258 720.3826 263.5647 720.446 263.6303 720.5115 263.7024 720.5661 263.7701 720.6229 263.8422 720.6797 263.9143 720.7278 263.9929 723.0499 267.0163 725.3131 270.0768 727.5151 273.2051 729.7215 276.3202 731.8755 279.4725 733.9814 282.6838 734.2064 283.0246 734.4336 283.3675 734.6651 283.7083 734.8945 284.0513 735.1217 284.3921 735.3489 284.7482 737.3499 287.8742 739.3116 291.044 741.2122 294.2531 743.1149 297.4731 744.963 300.7389 746.7478 304.0376 746.9619 304.4374 747.1825 304.8328 747.3988 305.25 747.6238 305.6585 747.8444 306.0648 748.065 306.4886 749.284 308.7846 750.468 311.1024 751.628 313.4354 752.7836 315.7663 753.9152 318.1235 755.0119 320.5002 756.5104 320.3539 758.0178 320.2141 759.5185 320.1026 761.0128 319.9912 762.5026 319.9148 763.9837 319.9148 793.4749 319.9148 822.7542 332.928 847.1729 355.3719 871.5829 377.8224 891.1279 409.7209 901.1418 447.5177 912.6106 490.7409 909.4321 533.5031 895.0295 567.6933 880.6356 601.8812 855.0111 627.4971 821.5768 636.4405L821.5768 636.4405 821.5768 636.4405ZM169.9654 460.0854C162.112 489.7164 163.3441 519.2993 171.547 542.8246 179.7543 566.3454 194.9259 583.7846 214.9734 589.1476 217.088 589.7134 219.2332 590.1284 221.3959 590.4059 223.5586 590.692 225.7475 590.8188 227.9473 590.8188 229.8937 590.8188 231.8445 590.6899 233.8019 590.4692 235.757 590.2398 237.7187 589.9056 239.6783 589.4906L239.6783 521.5734 239.6783 453.6475C239.6783 449.5144 239.7809 445.39 239.9557 441.294 240.137 437.1849 240.3948 433.0998 240.7137 429.041 240.7465 428.4861 240.7793 427.9509 240.8098 427.3938 240.8492 426.8499 240.8819 426.3037 240.9256 425.7489 241.2533 421.8997 241.6618 418.0702 242.1424 414.2626 242.6186 410.4528 243.1691 406.6626 243.7655 402.8877 243.8747 402.204 243.9905 401.5464 244.0976 400.8801 244.209 400.2138 244.3204 399.5585 244.4253 398.9009 245.0762 395.1545 245.7906 391.4386 246.5617 387.7511 247.3372 384.0614 248.1739 380.4067 249.0805 376.7825 249.2116 376.2189 249.3536 375.6641 249.5021 375.1005 249.6441 374.5347 249.8036 373.971 249.9456 373.4074 250.1138 372.7696 250.2732 372.1513 250.4371 371.5331 250.5987 370.9127 250.7648 370.301 250.9352 369.6719 233.6752 372.5009 216.5987 383.1461 202.255 399.0604S176.3028 436.1625 169.9654 460.0854L169.9654 460.0854 169.9654 460.0854ZM660.8607 515.8215L620.4118 485.3429 579.9586 454.8709 594.6693 406.6429 609.3756 358.4259C609.9457 356.5603 609.8977 354.5986 609.3079 352.8226 608.7158 351.0466 607.593 349.4584 606.0136 348.3028 605.2053 347.7195 604.3293 347.2739 603.4184 346.9811 602.503 346.6753 601.5659 346.5289 600.6287 346.5289 599.7199 346.5289 598.8046 346.6666 597.9264 346.9353 597.0504 347.204 596.2116 347.619 595.4492 348.1652L553.7137 376.9901 511.9782 405.815 470.2536 376.9901 428.5268 348.1652C426.9408 347.0467 425.0774 346.5093 423.214 346.5289 421.355 346.5573 419.4959 347.1472 417.9296 348.305 416.3568 349.4606 415.2383 351.0509 414.6594 352.8248 414.0761 354.6008 414.0346 356.5625 414.6179 358.4281L429.2979 406.6451 443.978 454.8731 403.5379 485.3451 363.0935 515.8237C361.5359 517.0012 360.4262 518.6177 359.856 520.4047 359.2924 522.196 359.2684 524.1577 359.8691 526.0255 360.4655 527.8758 361.6167 529.4399 363.1153 530.5453 364.6052 531.6681 366.438 532.3213 368.3953 532.3606L419.1901 533.3961 469.9871 534.4141 486.6747 582.0653 503.3667 629.7209C504.0002 631.5603 505.1843 633.0851 506.6916 634.1577 508.2033 635.2303 510.0339 635.842 511.976 635.842 513.9289 635.842 515.764 635.2325 517.2691 634.1577 518.783 633.0851 519.9604 631.5603 520.6027 629.7209L537.2882 582.0653 553.9758 534.4141 604.7531 533.3961 655.5304 532.3606C657.4921 532.3213 659.3359 531.6681 660.8344 530.5453 662.333 529.4377 663.4886 527.8736 664.0828 526.0255 664.6727 524.1577 664.6486 522.196 664.0828 520.4047 663.528 518.6156 662.427 516.999 660.8607 515.8215L660.8607 515.8215 660.8607 515.8215ZM854.0652 460.0854C847.7125 436.1625 836.1061 414.9747 821.7646 399.0582 807.4275 383.1439 790.3532 372.4987 773.0736 369.6697 773.2483 370.2792 773.4166 370.9083 773.5804 371.5309 773.7377 372.1382 773.8993 372.7674 774.0544 373.4053 774.2117 373.971 774.3625 374.5347 774.511 375.0895 774.6595 375.6466 774.8037 376.208 774.9414 376.7804 775.8501 380.4045 776.689 384.0592 777.4536 387.7489 778.2225 391.4364 778.9259 395.1545 779.5682 398.8988 779.6905 399.5563 779.8041 400.2138 779.9112 400.8779S780.1253 402.1996 780.2279 402.8855C780.833 406.6604 781.377 410.4506 781.8576 414.2604 782.336 418.068 782.7445 421.8975 783.0853 425.7532 783.1334 426.3015 783.1727 426.8477 783.212 427.3829 783.247 427.9203 783.2753 428.4555 783.3125 428.9907 783.6271 433.0605 783.8783 437.1543 784.053 441.2722 784.2234 445.3878 784.3217 449.5122 784.3217 453.6453L784.3217 521.5712 784.3217 589.4884C786.2769 589.8947 788.2473 590.2267 790.2047 590.467 792.1708 590.6899 794.1325 590.8166 796.0811 590.8166 798.2744 590.8166 800.4611 590.6877 802.6238 590.4037 804.7821 590.1153 806.9251 589.7112 809.0201 589.1454 829.0785 583.7824 844.2632 566.3432 852.477 542.8224 860.6821 519.2993 861.9142 489.7164 854.0652 460.0854L854.0652 460.0854 854.0652 460.0854Z"  horiz-adv-x="1024" vert-adv-y="1024"  />

      
      <glyph glyph-name="arrow-lro" unicode="&#xE1CE;" d="M67.447 305.1228A22.2276 22.2276 0 0 1 89.6747 282.8951H880.6664L740.785 143.0207A22.2276 22.2276 0 0 1 772.2233 111.5825L950.0444 289.4037A22.2276 22.2276 0 0 1 950.0444 320.8419L772.2233 498.6631A22.2276 22.2276 0 0 1 740.785 467.2249L880.6664 327.3504H89.6747A22.2276 22.2276 0 0 1 67.447 305.1228Z"  horiz-adv-x="1024" vert-adv-y="1024"  />

      
      <glyph glyph-name="arrow-down-1" unicode="&#xE1CF;" d="M511.5 22.1L80.6 453C57.8 475.8 57.8 512.8 80.6 535.6 103.4 558.4 140.4 558.4 163.2 535.6L511.5 187.3 859.8 535.6C882.6 558.4 919.6 558.4 942.4 535.6 965.2 512.8 965.2 475.8 942.4 453L511.5 22.1 511.5 22.1ZM511.5 22.1"  horiz-adv-x="1024" vert-adv-y="1024"  />

      
      <glyph glyph-name="arrow-left" unicode="&#xE1D0;" d="M364.0531 300L765.9758 657.5385C785.7027 674.8003 788.1679 706.8552 770.9073 726.5811 753.6477 746.3069 721.5917 748.7731 701.8659 731.5114L258.0242 336.9864C245.695 327.1235 240.7624 314.7944 240.7624 300S245.695 272.8765 258.0242 263.0136L701.8659-131.5125C711.7288-138.9102 724.0579-143.8417 733.9208-143.8417 748.7152-143.8417 761.0444-138.9102 770.9073-126.5811 788.1679-106.8552 788.1679-74.8003 765.9758-57.5385L364.0531 300Z"  horiz-adv-x="1024" vert-adv-y="1024"  />

      
      <glyph glyph-name="arrow-right" unicode="&#xE1D1;" d="M765.9758 336.9864L322.1341 731.5125C302.4083 748.7742 270.3523 748.7742 253.0927 726.5821 235.8321 706.8552 235.8321 674.8003 258.0242 657.5385L659.9469 300 258.0242-57.5385C238.2973-74.8003 235.8321-106.8552 253.0927-126.5811 262.9556-136.444 275.2848-143.8417 290.0792-143.8417 302.4083-143.8417 312.2712-138.9102 322.1341-131.5125L765.9758 263.0136C775.8398 272.8765 783.2376 285.2056 783.2376 300S778.305 327.1235 765.9758 336.9864Z"  horiz-adv-x="1024" vert-adv-y="1024"  />

      
      <glyph glyph-name="arrow-up-1" unicode="&#xE1D2;" d="M511.5 552.7L942.4 121.9C965.2 99.1 965.2 62.1 942.4 39.3 919.6 16.5 882.6 16.5 859.8 39.3L511.5 387.5 163.2 39.2C140.4 16.4 103.4 16.4 80.6 39.2 57.8 62 57.8 99 80.6 121.8L511.5 552.7 511.5 552.7ZM511.5 552.7"  horiz-adv-x="1024" vert-adv-y="1024"  />

      
      <glyph glyph-name="down-page" unicode="&#xE1D3;" d="M529.1804-35.9098L890.9135 354.5414A31.3029 31.3029 0 0 0 938.5772 354.5414C944.8819 347.5431 948.444 337.9915 948.444 328.0616 948.444 318.1001 944.9134 308.5169 938.5772 301.5502L553.1068-126.6346A31.3029 31.3029 0 0 0 505.4431-126.6346L119.752 301.5817A39.6882 39.6882 0 0 0 109.9167 328.0616C109.9167 338.023 113.4473 347.6062 119.752 354.5729A31.3029 31.3029 0 0 0 167.4472 354.5729L529.1804-35.9098ZM514.9317 476.0648L763.6528 744.5512A21.5306 21.5306 0 0 0 796.4373 744.5512C800.756 739.7281 803.1834 733.1712 803.1834 726.3305A27.2994 27.2994 0 0 0 796.4058 708.1099L531.4185 413.6796A21.5306 21.5306 0 0 0 498.634 413.6796L233.4576 708.1099A27.2679 27.2679 0 0 0 226.7116 726.3305C226.7116 733.1712 229.1389 739.7281 233.4891 744.5512A21.5306 21.5306 0 0 0 266.2737 744.5512L514.9317 476.0648Z"  horiz-adv-x="1048" vert-adv-y="1024"  />

      
      <glyph glyph-name="arrow-right-line" unicode="&#xE600;" d="M410.981 414.487C415.194 414.487 419.406 412.879 422.624 409.662L620.243 212.037C626.673 205.606 626.673 195.184 620.243 188.751L422.624-8.876C416.193-15.307 405.77-15.307 399.336-8.876 392.905-2.441 392.905 7.981 399.336 14.412L585.309 200.394 399.336 386.375C392.905 392.809 392.905 403.23 399.336 409.663 402.552 412.879 406.765 414.487 410.981 414.487V414.487ZM410.981 414.487Z"  horiz-adv-x="1024" vert-adv-y="1024"  />

      
      <glyph glyph-name="pelogo" unicode="&#xE601;" d="M580.7206 299.7186C583.4365 310.0376 582.3467 319.8204 578.5502 327.969 571.4833 343.1733 553.0156 356.2184 500.868 356.2184 472.6165 359.4694 443.2855 355.1276 412.8647 343.7187 382.979 332.3088 355.8184 317.6398 331.3747 298.6267 283.5679 261.1481 253.146 209.5438 263.4742 163.9085 270.532 124.7936 325.3965 112.3042 380.8075 112.3042 413.3998 111.7587 449.7978 113.9302 490.0025 119.3609L365.6022 107.4066C387.8755 107.4066 410.684 108.4964 434.5915 111.2133 475.3324 115.02 528.5709 123.713 580.7196 141.6352 637.2112 157.3859 695.8825 179.6582 739.8836 199.2156 766.509 209.5448 792.0334 220.4093 816.4863 231.2727 789.8609 215.5128 764.3274 201.3973 739.8836 187.8068 696.9723 164.4529 648.0849 136.2024 613.8573 119.3609 578.5492 106.8714 523.1402 92.7457 475.3314 81.8823 447.6264 74.8143 418.8305 68.8372 388.4097 62.8703 397.1037 62.8703 406.3411 62.8703 416.6601 63.4055 434.0461 65.0407 455.2295 66.6667 478.5926 73.1883L568.2199 96.008 523.1392 73.1883 704.5755 130.7707 592.1295 73.1883C611.6859 77.5302 631.2433 82.9629 650.8007 88.941 685.0181 99.8034 725.2238 113.3848 760.5299 130.7707 777.3714 138.9193 799.6457 150.8736 826.2589 166.0789L905.5682 211.1699C935.4538 228.5558 965.8757 247.0224 997.3782 266.0344L805.0785 153.044 929.4787 209.0005C916.9791 199.762 902.8533 191.0691 887.648 182.375 862.1145 167.7152 828.4313 147.6113 794.214 130.7707 749.122 101.9749 704.0301 78.621 669.8138 63.4065 650.2574 54.7227 631.7795 47.1093 613.8573 40.0526L760.5319 84.6002C738.2586 72.0995 713.8159 59.611 687.736 48.2012 642.1088 29.1902 579.6298 5.8271 512.2758-4.4929 449.2524-16.9916 408.5125-22.9595 380.8075-25.1402 365.0568-27.3106 352.5571-28.3912 343.329-28.3912 354.7388-30.0275 368.3181-31.6525 382.979-32.1979 409.058-33.824 442.7411-34.9138 490.0025-28.3912 546.4931-22.4243 591.0407-8.8348 622.0069 4.2 639.9291 11.8042 655.6891 19.9518 669.8148 28.6448L623.0978 9.6328C595.3928-1.2306 563.3367-16.9916 534.5501-28.3902 475.8788-39.2547 370.4895-46.3216 272.159-31.1061 239.0223-26.2208 209.6913-17.5258 183.6113-5.0363 132.007 19.4074 95.0636 57.9768 95.0636 119.3639 99.9601 221.4909 212.9526 307.8682 335.7166 361.6532 377.5463 380.1208 418.2974 394.2465 457.9464 403.4737 497.6057 412.7121 533.4582 417.5994 565.5061 417.5994 597.5622 417.5994 621.4615 412.1677 636.6771 401.8476 648.0859 392.6092 651.337 382.8346 646.4507 371.4258S634.4964 349.1525 625.2692 338.289C613.8584 326.3338 598.6428 313.2989 580.7206 299.7186L580.7206 299.7186ZM432.9573 299.7186C429.1608 291.57 429.696 283.4214 434.0471 275.8193 440.5696 264.4115 460.6623 248.6495 512.2758 243.7632 543.2318 240.5019 574.1981 244.3086 604.6189 255.172 635.5862 266.5809 662.2014 281.251 685.5645 300.264 708.9276 319.276 726.8498 341.0039 739.3495 365.4476 751.8389 389.8913 755.1002 412.71 749.1231 434.9833 743.147 475.188 687.1916 485.507 631.7805 488.2229 599.7337 488.7683 563.3357 486.0514 523.1412 480.6197L647.5415 492.0193C625.2682 492.0193 601.9041 490.9387 578.5502 488.7683 537.2649 486.5876 484.5708 479.5299 432.9573 468.121 375.9213 450.734 316.1694 427.3801 272.158 405.6533 245.5439 393.1526 220.0093 380.1187 195.5646 367.6191 221.0991 382.8346 246.6327 397.5047 272.158 411.6202L338.4324 448.0192C361.2501 461.0633 381.353 471.9267 398.7389 480.6197 439.4798 491.4841 493.8 506.144 541.6068 517.5529 568.7674 524.6208 596.4714 530.5877 625.2682 536.5659 616.0298 536.5659 606.7904 536.0297 596.4714 535.4842 579.0854 533.849 557.903 530.5877 534.548 525.7014 511.1849 518.6437 490.0015 514.837 472.6155 510.4951 462.2965 507.7793 453.0581 505.0634 444.3651 503.4282L490.0015 525.7014 308.556 468.12 432.9562 525.7014C413.3988 521.3596 393.3062 516.4722 373.2034 510.4951 340.6111 499.6317 297.6915 486.0514 263.4732 468.12 245.5418 459.426 223.814 447.483 197.1988 432.8118L119.5155 388.2663 26.6167 333.4017 206.428 457.801 82.5721 390.4367C96.1524 399.1297 110.8225 408.3681 125.4834 418.6861 151.5624 436.6083 183.6093 457.2556 218.9266 480.6187 264.0084 504.517 308.0095 521.904 342.2371 536.5649 361.7945 544.7124 380.8055 551.7804 398.7369 558.8381L252.6088 514.2916C274.8718 526.7913 299.3258 539.2807 325.9409 551.236 369.9421 570.248 431.8746 593.0657 500.8659 604.4756 563.3336 615.8844 605.1633 621.8523 631.7785 624.5682 647.5395 626.2034 660.5743 627.2943 669.8127 627.2943 658.4029 628.9203 644.8236 630.5453 630.1525 631.0907 604.6179 633.2622 568.2199 632.1816 523.1392 627.2943 472.6145 620.7717 430.2394 607.7379 399.8185 594.6927 381.8963 587.635 366.6818 579.4874 354.1924 570.248 366.6818 579.4864 380.8065 587.635 396.0221 594.6927 422.0918 607.7379 454.6841 620.7717 490.0015 627.2943 602.4475 650.1038 918.0689 661.5116 918.6143 480.6207 912.6361 379.5733 799.6457 291.571 676.8705 238.3325 635.0398 220.4103 594.3009 206.2856 554.6407 195.9564 514.9916 186.1828 479.1381 181.2965 447.082 180.7511 415.0351 180.2067 391.672 186.1838 377.0111 198.1381 365.0568 209.0015 361.2501 220.4113 366.1374 232.9008 371.0339 245.4005 378.0917 256.7991 388.4107 266.0375 399.8195 277.4453 414.4907 288.8541 432.9573 299.7186Z"  horiz-adv-x="1024" vert-adv-y="1024"  />

      
      <glyph glyph-name="iconfonticonfuzhi" unicode="&#xE602;" d="M921.3387 811.6429L102.6602 811.6429C46.1448 811.6429 0.3254 765.8233 0.3254 709.3122L0.3254-109.3337C0.3254-165.8448 46.1448-211.6644 102.6602-211.6644L921.3387-211.6644C977.8542-211.6644 1023.6736-165.8448 1023.6736-109.3337L1023.6736 709.3122C1023.6736 765.8223 977.8531 811.6429 921.3387 811.6429ZM921.3387-58.1674C921.3387-86.4475 898.4045-109.3337 870.1703-109.3337L153.8266-109.3337C125.5945-109.3337 102.6592-86.4475 102.6592-58.1674L102.6592 658.1469C102.6592 686.4035 125.5945 709.3122 153.8266 709.3122L870.1703 709.3122C898.4045 709.3122 921.3387 686.4035 921.3387 658.1469L921.3387-58.1674ZM204.994 606.9816L409.6637 606.9816 409.6637 555.8163 204.994 555.8163 204.994 606.9816ZM204.994 402.3204L460.8311 402.3204 460.8311 351.1551 204.994 351.1551 204.994 402.3204ZM563.1659 402.3204L819.0039 402.3204 819.0039 351.1551 563.1659 351.1551 563.1659 402.3204ZM563.1659 606.9816L819.0039 606.9816 819.0039 555.8163 563.1659 555.8163 563.1659 606.9816ZM307.3288 555.8173L409.6637 555.8173 409.6637 351.1561 307.3288 351.1561 307.3288 555.8173ZM716.6691 555.8173L819.0039 555.8173 819.0039 351.1561 716.6691 351.1561 716.6691 555.8173ZM563.1659 555.8173L614.3343 555.8173 614.3343 351.1561 563.1659 351.1561 563.1659 555.8173ZM204.994 248.8255L460.8311 248.8255 460.8311 197.6602 204.994 197.6602 204.994 248.8255ZM358.4962 197.6602L460.8311 197.6602 460.8311 95.3296 358.4962 95.3296 358.4962 197.6602ZM204.994 146.4949L460.8311 146.4949 460.8311 95.3296 204.994 95.3296 204.994 146.4949ZM563.1659 248.8255L614.3343 248.8255 614.3343 146.4949 563.1659 146.4949 563.1659 248.8255ZM563.1659 146.4949L819.0039 146.4949 819.0039 95.3296 563.1659 95.3296 563.1659 146.4949ZM204.994 95.3296L307.3288 95.3296 307.3288-7.0031 204.994-7.0031 204.994 95.3296ZM716.6691 248.8255L819.0039 248.8255 819.0039-7.0031 716.6691-7.0031 716.6691 248.8255ZM204.994 44.1642L460.8311 44.1642 460.8311-7.0031 204.994-7.0031 204.994 44.1642Z"  horiz-adv-x="1024" vert-adv-y="1024"  />

      
      <glyph glyph-name="fantanguanli" unicode="&#xE603;" d="M774.3588 177.7917L774.9319 178.3657 774.9319 177.7917 774.3588 177.7917ZM749.2254 190.3579L749.2254 190.9309 749.7995 190.3579 749.2254 190.3579ZM623.6043 446.7575L624.1671 446.1844C624.7412 446.1844 624.7412 446.1844 624.7412 446.1844 627.5952 443.3294 631.5964 441.6205 636.1603 441.6205L866.8647 441.6205C877.1387 441.6205 885.7037 450.1845 885.7037 460.4595 885.7037 465.5965 883.4218 470.7438 879.4309 474.1616L649.8726 703.7301C646.4445 707.148 641.8703 709.4402 636.1603 709.4402 626.4604 709.4402 618.4571 702.011 617.8943 692.8728L617.8943 691.1639 617.8943 460.4606C617.8943 455.3225 620.1763 450.1855 623.6043 446.7575L623.6043 446.7575ZM664.7105 622.6331L799.48 487.8739 664.7105 487.8739 664.7105 622.6331ZM862.3007 372.5166C849.7345 372.5166 839.4503 362.2426 839.4503 349.6774L839.4503-49.4744C839.4503-60.8945 836.5953-63.7598 825.7482-63.7598L237.0095-63.7598C226.1522-63.7598 223.2972-60.8945 223.2972-49.4744L223.2972 648.9014C223.2972 660.3215 226.1522 663.7495 237.0095 663.7495L532.8064 663.7495C532.8064 663.7495 532.8064 663.7495 532.8064 664.3226L533.3804 663.7495C545.9364 663.7495 556.2196 674.0338 556.2196 686.5897 556.2196 699.1559 545.9354 709.4402 533.3804 709.4402L532.8064 709.4402 200.457 709.4402C187.328 709.4402 177.0437 699.1559 177.0437 686.5897L177.0437-86.6C177.0437-99.1559 187.328-109.4391 200.457-109.4391L862.3007-109.4391C875.4298-109.4391 885.7038-99.1549 885.7038-86.6L885.7038 349.1033C885.1409 362.2426 875.4298 372.5166 862.3007 372.5166L862.3007 372.5166ZM501.4011 263.4526C500.255 264.5987 498.5461 265.1615 497.4 265.1615S495.118 265.1615 493.9719 264.0267C493.9719 264.0267 493.9719 264.0267 493.3989 263.4526 492.263 262.3065 491.6899 260.5976 491.6899 258.8887L491.6899 156.0976C491.6899 154.9515 492.836 152.0964 494.545 150.3875 496.8269 149.2414 499.683 149.8145 500.8281 150.9616L569.3486 203.4981C570.4947 204.634 571.0688 205.7791 570.4947 207.489 571.0688 208.6341 570.4947 210.344 569.3486 210.9171L501.4011 263.4526ZM508.247 177.7917L508.247 236.6113 545.9354 207.488 508.247 177.7917ZM355.2116 61.8715L696.126 61.8715 696.126 382.2278 355.2116 382.2278 355.2116 61.8715ZM633.3053 357.6787L677.2778 357.6787 677.2778 313.7072 633.3053 313.7072 633.3053 357.6787ZM633.3053 281.7289L677.2778 281.7289 677.2778 237.7564 633.3053 237.7564 633.3053 281.7289ZM633.3053 206.3521L677.2778 206.3521 677.2778 162.3807 633.3053 162.3807 633.3053 206.3521ZM633.3053 130.4034L677.2778 130.4034 677.2778 86.4309 633.3053 86.4309 633.3053 130.4034ZM440.8623 361.6695L610.4651 361.6695 610.4651 82.4308 440.8623 82.4308 440.8623 361.6695ZM376.3429 357.6787L419.7413 357.6787 419.7413 313.7072 376.3429 313.7072 376.3429 357.6787ZM376.3429 281.7289L419.7413 281.7289 419.7413 237.7564 376.3429 237.7564 376.3429 281.7289ZM376.3429 206.3521L419.7413 206.3521 419.7413 162.3807 376.3429 162.3807 376.3429 206.3521ZM376.3429 130.4034L419.7413 130.4034 419.7413 86.4309 376.3429 86.4309 376.3429 130.4034Z"  horiz-adv-x="1024" vert-adv-y="1024"  />

      
      <glyph glyph-name="date" unicode="&#xE604;" d="M77.6183 681.4087L77.6183-155.7376 915.3387-155.7376 915.3387 681.4087 77.6183 681.4087ZM601.2635 594.6119L653.8021 594.6119 653.8021 542.6484 601.2635 542.6484 601.2635 594.6119ZM339.7279 594.6119L391.6914 594.6119 391.6914 542.6484 339.7279 542.6484 339.7279 594.6119ZM881.0682-121.4671L112.4516-121.4671 112.4516 454.7055 881.0682 454.7055 881.0682-121.4671ZM373.9882 53.2717L409.9574 53.2717 409.9574 333.0743 378.5522 333.0743 377.9791 329.0844C371.7063 286.2488 351.7109 286.2488 311.1675 285.1129L304.8946 285.686 304.8946 262.8356 373.9882 262.8356 373.9882 53.2717ZM582.9883 84.1039C549.8649 84.1039 526.4506 110.3722 525.3158 142.3505L525.3158 153.1985 488.7633 153.1985 488.7633 142.3505C489.9094 90.388 527.0247 53.2717 580.7063 53.2717 635.5248 53.2717 677.7782 93.8151 677.7782 146.9144 677.7782 205.161 640.0898 243.4234 583.5624 243.4234 567.5671 243.4234 551.01 237.7134 537.8717 228.5743L550.4369 299.387 671.4951 299.387 671.4951 333.0743 523.0338 333.0743 495.0464 170.9017 526.4516 170.9017 528.7438 177.7579C539.5909 194.887 560.1481 208.016 581.2702 208.016 616.1025 208.016 641.2359 183.4679 641.2359 147.4885 641.2349 115.5102 621.2507 84.1039 582.9883 84.1039Z"  horiz-adv-x="1024" vert-adv-y="1024"  />

      
      </font>
</defs>
</svg>
